<svg xmlns="http://www.w3.org/2000/svg" xmlns:xlink="http://www.w3.org/1999/xlink" width="500" zoomAndPan="magnify" viewBox="0 0 375 374.999991" height="500" preserveAspectRatio="xMidYMid meet" version="1.0"><defs><g/><clipPath id="f6a33bb5b0"><path d="M 135 66 L 219 66 L 219 225 L 135 225 Z M 135 66 " clip-rule="nonzero"/></clipPath><clipPath id="446692d79c"><path d="M 97.921875 160.042969 L 177.367188 54.941406 L 277.027344 130.273438 L 197.578125 235.375 Z M 97.921875 160.042969 " clip-rule="nonzero"/></clipPath><clipPath id="55ef5e2e79"><path d="M 97.921875 160.042969 L 177.367188 54.941406 L 277.027344 130.273438 L 197.578125 235.375 Z M 97.921875 160.042969 " clip-rule="nonzero"/></clipPath><clipPath id="959b76122f"><path d="M 97.921875 160.042969 L 177.367188 54.941406 L 277.027344 130.273438 L 197.578125 235.375 Z M 97.921875 160.042969 " clip-rule="nonzero"/></clipPath><clipPath id="c28c78dade"><path d="M 128 130 L 255 130 L 255 208 L 128 208 Z M 128 130 " clip-rule="nonzero"/></clipPath><clipPath id="05078d943d"><path d="M 117.40625 180.058594 L 175.890625 83.542969 L 267.019531 138.765625 L 208.53125 235.285156 Z M 117.40625 180.058594 " clip-rule="nonzero"/></clipPath><clipPath id="6fe85b7b2d"><path d="M 208.671875 235.367188 L 267.160156 138.851562 L 176.03125 83.628906 L 117.542969 180.144531 Z M 208.671875 235.367188 " clip-rule="nonzero"/></clipPath></defs><g clip-path="url(#f6a33bb5b0)"><g clip-path="url(#446692d79c)"><g clip-path="url(#55ef5e2e79)"><g clip-path="url(#959b76122f)"><path fill="#25995c" d="M 177.390625 91.839844 C 139.710938 141.222656 142.753906 185.324219 188.960938 223.828125 C 189.542969 224.3125 188.910156 225.21875 188.25 224.851562 C 170.917969 215.226562 156.972656 204.011719 147.566406 190.660156 C 116.535156 146.601562 148.957031 92.546875 188.730469 66.863281 C 190.710938 65.585938 193.265625 66.953125 193.332031 69.3125 C 194.558594 113.722656 257.839844 155.636719 180.734375 203.195312 C 155.96875 167.945312 152 131.050781 177.390625 91.839844 " fill-opacity="1" fill-rule="evenodd"/></g></g></g></g><g clip-path="url(#c28c78dade)"><g clip-path="url(#05078d943d)"><g clip-path="url(#6fe85b7b2d)"><path fill="#43d445" d="M 237.855469 150.5625 C 210.484375 196.191406 174.511719 207.789062 129.421875 183.320312 C 128.855469 183.011719 128.332031 183.804688 128.832031 184.210938 C 141.921875 194.917969 155.207031 202.433594 168.761719 205.660156 C 213.496094 216.3125 246.230469 173.375 254.125 133.617188 C 254.515625 131.636719 252.628906 130.042969 250.734375 130.738281 C 215.089844 143.878906 161.921875 106.933594 148.390625 183.296875 C 184.160156 191.765625 214.699219 183.195312 237.855469 150.5625 " fill-opacity="1" fill-rule="evenodd"/></g></g></g><g fill="#304ffe" fill-opacity="1"><g transform="translate(72.215617, 286.024433)"><g><path d="M 32.996094 -42.851562 L 1.835938 -42.851562 L 1.835938 -35.015625 L 13.34375 -35.015625 L 13.34375 0 L 21.488281 0 L 21.488281 -35.015625 L 32.996094 -35.015625 Z M 32.996094 -42.851562 "/></g></g></g><g fill="#304ffe" fill-opacity="1"><g transform="translate(107.042458, 286.024433)"><g><path d="M 15.855469 -29.933594 C 7.347656 -29.933594 0.917969 -23.261719 0.917969 -14.753906 C 0.917969 -6.242188 7.347656 0.488281 15.855469 0.488281 C 24.363281 0.488281 30.792969 -6.242188 30.792969 -14.753906 C 30.792969 -23.261719 24.363281 -29.933594 15.855469 -29.933594 Z M 15.855469 -6.976562 C 11.445312 -6.976562 8.875 -10.34375 8.875 -14.753906 C 8.875 -19.160156 11.445312 -22.527344 15.855469 -22.527344 C 20.261719 -22.527344 22.832031 -19.160156 22.832031 -14.753906 C 22.832031 -10.34375 20.261719 -6.976562 15.855469 -6.976562 Z M 15.855469 -6.976562 "/></g></g></g><g fill="#304ffe" fill-opacity="1"><g transform="translate(139.665854, 286.024433)"><g><path d="M 22.710938 -29.503906 L 22.710938 -26.933594 C 20.691406 -28.769531 17.996094 -29.933594 14.875 -29.933594 C 6.367188 -29.933594 0.613281 -23.261719 0.613281 -14.753906 C 0.613281 -6.242188 6.367188 0.488281 14.875 0.488281 C 17.996094 0.488281 20.628906 -0.671875 22.710938 -2.511719 C 22.648438 2.695312 19.894531 6 15.121094 6 C 11.628906 6 9.367188 4.53125 7.898438 2.753906 L 1.773438 7.039062 C 3.980469 10.222656 9.121094 13.835938 15.304688 13.835938 C 26.140625 13.835938 30.851562 5.9375 30.851562 -4.285156 C 30.851562 -13.835938 30.851562 -29.503906 30.851562 -29.503906 Z M 15.730469 -6.976562 C 11.324219 -6.976562 8.753906 -10.34375 8.753906 -14.753906 C 8.753906 -19.160156 11.324219 -22.527344 15.730469 -22.527344 C 20.140625 -22.527344 22.710938 -19.160156 22.710938 -14.753906 C 22.710938 -10.34375 20.140625 -6.976562 15.730469 -6.976562 Z M 15.730469 -6.976562 "/></g></g></g><g fill="#304ffe" fill-opacity="1"><g transform="translate(173.574593, 286.024433)"><g><path d="M 37.15625 -29.503906 L 31.402344 -12.671875 L 25.648438 -29.503906 L 19.710938 -29.503906 L 13.957031 -12.671875 L 8.140625 -29.503906 L 0 -29.503906 L 10.160156 0 L 16.652344 0 L 22.648438 -17.203125 L 28.710938 0 L 35.199219 0 L 45.359375 -29.503906 Z M 37.15625 -29.503906 "/></g></g></g><g fill="#304ffe" fill-opacity="1"><g transform="translate(219.541135, 286.024433)"><g><path d="M 15.855469 -29.933594 C 7.347656 -29.933594 0.917969 -23.261719 0.917969 -14.753906 C 0.917969 -6.242188 7.347656 0.488281 15.855469 0.488281 C 24.363281 0.488281 30.792969 -6.242188 30.792969 -14.753906 C 30.792969 -23.261719 24.363281 -29.933594 15.855469 -29.933594 Z M 15.855469 -6.976562 C 11.445312 -6.976562 8.875 -10.34375 8.875 -14.753906 C 8.875 -19.160156 11.445312 -22.527344 15.855469 -22.527344 C 20.261719 -22.527344 22.832031 -19.160156 22.832031 -14.753906 C 22.832031 -10.34375 20.261719 -6.976562 15.855469 -6.976562 Z M 15.855469 -6.976562 "/></g></g></g><g fill="#304ffe" fill-opacity="1"><g transform="translate(252.164531, 286.024433)"><g><path d="M 16.835938 -29.933594 C 14.078125 -29.933594 11.753906 -28.769531 9.976562 -26.933594 L 9.976562 -29.503906 L 1.835938 -29.503906 L 1.835938 0 L 9.976562 0 L 9.976562 -16.039062 C 9.976562 -20.382812 12 -22.34375 14.875 -22.34375 C 15.976562 -22.34375 16.894531 -22.097656 17.628906 -21.609375 L 19.160156 -29.75 C 18.425781 -29.871094 17.628906 -29.933594 16.835938 -29.933594 Z M 16.835938 -29.933594 "/></g></g></g><g fill="#304ffe" fill-opacity="1"><g transform="translate(271.934416, 286.024433)"><g><path d="M 20.507812 0 L 29.933594 0 L 17.753906 -16.835938 L 29.503906 -29.503906 L 19.097656 -29.503906 L 9.976562 -19.589844 L 9.976562 -42.851562 L 1.835938 -42.851562 L 1.835938 0 L 9.976562 0 L 9.976562 -8.449219 L 12.488281 -11.140625 Z M 20.507812 0 "/></g></g></g></svg>