<svg xmlns="http://www.w3.org/2000/svg" xmlns:xlink="http://www.w3.org/1999/xlink" width="500" zoomAndPan="magnify" viewBox="0 0 375 374.999991" height="500" preserveAspectRatio="xMidYMid meet" version="1.0"><defs><g/><clipPath id="2bf392b35b"><path d="M 112.5 63.664062 L 262.5 63.664062 L 262.5 213.664062 L 112.5 213.664062 Z M 112.5 63.664062 " clip-rule="nonzero"/></clipPath><clipPath id="cbffc6e271"><path d="M 131 73 L 248 73 L 248 200 L 131 200 Z M 131 73 " clip-rule="nonzero"/></clipPath><clipPath id="82525f73cc"><path d="M 190.382812 223.242188 L 107.652344 166.179688 L 184.730469 54.433594 L 267.460938 111.496094 Z M 190.382812 223.242188 " clip-rule="nonzero"/></clipPath><clipPath id="b5c41610ab"><path d="M 190.382812 223.242188 L 107.652344 166.179688 L 184.730469 54.433594 L 267.460938 111.496094 Z M 190.382812 223.242188 " clip-rule="nonzero"/></clipPath><clipPath id="aa939b25db"><path d="M 190.382812 223.242188 L 107.652344 166.179688 L 184.730469 54.433594 L 267.460938 111.496094 Z M 190.382812 223.242188 " clip-rule="nonzero"/></clipPath><clipPath id="2b5b49edde"><path d="M 150 75 L 245 75 L 245 185 L 150 185 Z M 150 75 " clip-rule="nonzero"/></clipPath><clipPath id="1f0d347afc"><path d="M 190.382812 223.242188 L 107.652344 166.179688 L 184.730469 54.433594 L 267.460938 111.496094 Z M 190.382812 223.242188 " clip-rule="nonzero"/></clipPath><clipPath id="13050bc927"><path d="M 190.382812 223.242188 L 107.652344 166.179688 L 184.730469 54.433594 L 267.460938 111.496094 Z M 190.382812 223.242188 " clip-rule="nonzero"/></clipPath><clipPath id="8471f52892"><path d="M 190.382812 223.242188 L 107.652344 166.179688 L 184.730469 54.433594 L 267.460938 111.496094 Z M 190.382812 223.242188 " clip-rule="nonzero"/></clipPath><clipPath id="77ae790561"><path d="M 162 89 L 236 89 L 236 171 L 162 171 Z M 162 89 " clip-rule="nonzero"/></clipPath><clipPath id="a252f67938"><path d="M 190.382812 223.242188 L 107.652344 166.179688 L 184.730469 54.433594 L 267.460938 111.496094 Z M 190.382812 223.242188 " clip-rule="nonzero"/></clipPath><clipPath id="4d405482d0"><path d="M 190.382812 223.242188 L 107.652344 166.179688 L 184.730469 54.433594 L 267.460938 111.496094 Z M 190.382812 223.242188 " clip-rule="nonzero"/></clipPath><clipPath id="4cd6b3ff5d"><path d="M 190.382812 223.242188 L 107.652344 166.179688 L 184.730469 54.433594 L 267.460938 111.496094 Z M 190.382812 223.242188 " clip-rule="nonzero"/></clipPath><clipPath id="fbaafa6146"><path d="M 134 134 L 173 134 L 173 200 L 134 200 Z M 134 134 " clip-rule="nonzero"/></clipPath><clipPath id="e3a27e8d24"><path d="M 190.382812 223.242188 L 107.652344 166.179688 L 184.730469 54.433594 L 267.460938 111.496094 Z M 190.382812 223.242188 " clip-rule="nonzero"/></clipPath><clipPath id="a0589bd02a"><path d="M 190.382812 223.242188 L 107.652344 166.179688 L 184.730469 54.433594 L 267.460938 111.496094 Z M 190.382812 223.242188 " clip-rule="nonzero"/></clipPath><clipPath id="f16fefaeaf"><path d="M 190.382812 223.242188 L 107.652344 166.179688 L 184.730469 54.433594 L 267.460938 111.496094 Z M 190.382812 223.242188 " clip-rule="nonzero"/></clipPath><clipPath id="d7b3f09738"><path d="M 146 94 L 203 94 L 203 193 L 146 193 Z M 146 94 " clip-rule="nonzero"/></clipPath><clipPath id="7115164038"><path d="M 190.382812 223.242188 L 107.652344 166.179688 L 184.730469 54.433594 L 267.460938 111.496094 Z M 190.382812 223.242188 " clip-rule="nonzero"/></clipPath><clipPath id="a7c4cc01f8"><path d="M 190.382812 223.242188 L 107.652344 166.179688 L 184.730469 54.433594 L 267.460938 111.496094 Z M 190.382812 223.242188 " clip-rule="nonzero"/></clipPath><clipPath id="97af7fbf5b"><path d="M 190.382812 223.242188 L 107.652344 166.179688 L 184.730469 54.433594 L 267.460938 111.496094 Z M 190.382812 223.242188 " clip-rule="nonzero"/></clipPath><clipPath id="705f853520"><path d="M 158 85 L 227 85 L 227 175 L 158 175 Z M 158 85 " clip-rule="nonzero"/></clipPath><clipPath id="59743c564a"><path d="M 190.382812 223.242188 L 107.652344 166.179688 L 184.730469 54.433594 L 267.460938 111.496094 Z M 190.382812 223.242188 " clip-rule="nonzero"/></clipPath><clipPath id="ba49557520"><path d="M 190.382812 223.242188 L 107.652344 166.179688 L 184.730469 54.433594 L 267.460938 111.496094 Z M 190.382812 223.242188 " clip-rule="nonzero"/></clipPath><clipPath id="2d9d1c4834"><path d="M 190.382812 223.242188 L 107.652344 166.179688 L 184.730469 54.433594 L 267.460938 111.496094 Z M 190.382812 223.242188 " clip-rule="nonzero"/></clipPath><clipPath id="f8cb4651c0"><path d="M 141 106 L 190 106 L 190 197 L 141 197 Z M 141 106 " clip-rule="nonzero"/></clipPath><clipPath id="bd728a0d18"><path d="M 190.382812 223.242188 L 107.652344 166.179688 L 184.730469 54.433594 L 267.460938 111.496094 Z M 190.382812 223.242188 " clip-rule="nonzero"/></clipPath><clipPath id="47a8d3bbb1"><path d="M 190.382812 223.242188 L 107.652344 166.179688 L 184.730469 54.433594 L 267.460938 111.496094 Z M 190.382812 223.242188 " clip-rule="nonzero"/></clipPath><clipPath id="095737e9f1"><path d="M 190.382812 223.242188 L 107.652344 166.179688 L 184.730469 54.433594 L 267.460938 111.496094 Z M 190.382812 223.242188 " clip-rule="nonzero"/></clipPath><clipPath id="34a24cdfb4"><path d="M 138 125 L 178 125 L 178 198 L 138 198 Z M 138 125 " clip-rule="nonzero"/></clipPath><clipPath id="a5c02fd676"><path d="M 190.382812 223.242188 L 107.652344 166.179688 L 184.730469 54.433594 L 267.460938 111.496094 Z M 190.382812 223.242188 " clip-rule="nonzero"/></clipPath><clipPath id="3949160b88"><path d="M 190.382812 223.242188 L 107.652344 166.179688 L 184.730469 54.433594 L 267.460938 111.496094 Z M 190.382812 223.242188 " clip-rule="nonzero"/></clipPath><clipPath id="1930121d2f"><path d="M 190.382812 223.242188 L 107.652344 166.179688 L 184.730469 54.433594 L 267.460938 111.496094 Z M 190.382812 223.242188 " clip-rule="nonzero"/></clipPath><clipPath id="01cf02f61e"><path d="M 201 117 L 248 117 L 248 167 L 201 167 Z M 201 117 " clip-rule="nonzero"/></clipPath><clipPath id="ed50b390dd"><path d="M 190.382812 223.242188 L 107.652344 166.179688 L 184.730469 54.433594 L 267.460938 111.496094 Z M 190.382812 223.242188 " clip-rule="nonzero"/></clipPath><clipPath id="4f812bbc21"><path d="M 190.382812 223.242188 L 107.652344 166.179688 L 184.730469 54.433594 L 267.460938 111.496094 Z M 190.382812 223.242188 " clip-rule="nonzero"/></clipPath><clipPath id="41cdebfbec"><path d="M 190.382812 223.242188 L 107.652344 166.179688 L 184.730469 54.433594 L 267.460938 111.496094 Z M 190.382812 223.242188 " clip-rule="nonzero"/></clipPath><clipPath id="f530a27c58"><path d="M 182 116 L 194 116 L 194 135 L 182 135 Z M 182 116 " clip-rule="nonzero"/></clipPath><clipPath id="123927166b"><path d="M 190.382812 223.242188 L 107.652344 166.179688 L 184.730469 54.433594 L 267.460938 111.496094 Z M 190.382812 223.242188 " clip-rule="nonzero"/></clipPath><clipPath id="bcd9a5ee79"><path d="M 190.382812 223.242188 L 107.652344 166.179688 L 184.730469 54.433594 L 267.460938 111.496094 Z M 190.382812 223.242188 " clip-rule="nonzero"/></clipPath><clipPath id="f9e718c7fd"><path d="M 190.382812 223.242188 L 107.652344 166.179688 L 184.730469 54.433594 L 267.460938 111.496094 Z M 190.382812 223.242188 " clip-rule="nonzero"/></clipPath><clipPath id="eeb9dc5474"><path d="M 131 153 L 152 153 L 152 195 L 131 195 Z M 131 153 " clip-rule="nonzero"/></clipPath><clipPath id="9d37e6cb53"><path d="M 190.382812 223.242188 L 107.652344 166.179688 L 184.730469 54.433594 L 267.460938 111.496094 Z M 190.382812 223.242188 " clip-rule="nonzero"/></clipPath><clipPath id="eab43fac6d"><path d="M 190.382812 223.242188 L 107.652344 166.179688 L 184.730469 54.433594 L 267.460938 111.496094 Z M 190.382812 223.242188 " clip-rule="nonzero"/></clipPath><clipPath id="fa2f78b60b"><path d="M 190.382812 223.242188 L 107.652344 166.179688 L 184.730469 54.433594 L 267.460938 111.496094 Z M 190.382812 223.242188 " clip-rule="nonzero"/></clipPath><clipPath id="b996fe932a"><path d="M 192 93 L 217 93 L 217 126 L 192 126 Z M 192 93 " clip-rule="nonzero"/></clipPath><clipPath id="0ed489dfec"><path d="M 190.382812 223.242188 L 107.652344 166.179688 L 184.730469 54.433594 L 267.460938 111.496094 Z M 190.382812 223.242188 " clip-rule="nonzero"/></clipPath><clipPath id="5a8675bf62"><path d="M 190.382812 223.242188 L 107.652344 166.179688 L 184.730469 54.433594 L 267.460938 111.496094 Z M 190.382812 223.242188 " clip-rule="nonzero"/></clipPath><clipPath id="9a0069ceb2"><path d="M 190.382812 223.242188 L 107.652344 166.179688 L 184.730469 54.433594 L 267.460938 111.496094 Z M 190.382812 223.242188 " clip-rule="nonzero"/></clipPath><clipPath id="7154f75815"><path d="M 133 174 L 141 174 L 141 187 L 133 187 Z M 133 174 " clip-rule="nonzero"/></clipPath><clipPath id="af9ff9af93"><path d="M 190.382812 223.242188 L 107.652344 166.179688 L 184.730469 54.433594 L 267.460938 111.496094 Z M 190.382812 223.242188 " clip-rule="nonzero"/></clipPath><clipPath id="355164153a"><path d="M 190.382812 223.242188 L 107.652344 166.179688 L 184.730469 54.433594 L 267.460938 111.496094 Z M 190.382812 223.242188 " clip-rule="nonzero"/></clipPath><clipPath id="95361417c0"><path d="M 190.382812 223.242188 L 107.652344 166.179688 L 184.730469 54.433594 L 267.460938 111.496094 Z M 190.382812 223.242188 " clip-rule="nonzero"/></clipPath><clipPath id="67fe164c8d"><path d="M 185 73 L 197 73 L 197 78 L 185 78 Z M 185 73 " clip-rule="nonzero"/></clipPath><clipPath id="40e0f5fad1"><path d="M 190.382812 223.242188 L 107.652344 166.179688 L 184.730469 54.433594 L 267.460938 111.496094 Z M 190.382812 223.242188 " clip-rule="nonzero"/></clipPath><clipPath id="cfd453fff8"><path d="M 190.382812 223.242188 L 107.652344 166.179688 L 184.730469 54.433594 L 267.460938 111.496094 Z M 190.382812 223.242188 " clip-rule="nonzero"/></clipPath><clipPath id="ed89a35952"><path d="M 190.382812 223.242188 L 107.652344 166.179688 L 184.730469 54.433594 L 267.460938 111.496094 Z M 190.382812 223.242188 " clip-rule="nonzero"/></clipPath><clipPath id="6166e55be1"><path d="M 232 138 L 238 138 L 238 145 L 232 145 Z M 232 138 " clip-rule="nonzero"/></clipPath><clipPath id="62100576e1"><path d="M 190.382812 223.242188 L 107.652344 166.179688 L 184.730469 54.433594 L 267.460938 111.496094 Z M 190.382812 223.242188 " clip-rule="nonzero"/></clipPath><clipPath id="826a073322"><path d="M 190.382812 223.242188 L 107.652344 166.179688 L 184.730469 54.433594 L 267.460938 111.496094 Z M 190.382812 223.242188 " clip-rule="nonzero"/></clipPath><clipPath id="62e107c755"><path d="M 190.382812 223.242188 L 107.652344 166.179688 L 184.730469 54.433594 L 267.460938 111.496094 Z M 190.382812 223.242188 " clip-rule="nonzero"/></clipPath><clipPath id="bd1faa1385"><path d="M 201 108 L 205 108 L 205 115 L 201 115 Z M 201 108 " clip-rule="nonzero"/></clipPath><clipPath id="c8b91a8f97"><path d="M 190.382812 223.242188 L 107.652344 166.179688 L 184.730469 54.433594 L 267.460938 111.496094 Z M 190.382812 223.242188 " clip-rule="nonzero"/></clipPath><clipPath id="dfd6972b1d"><path d="M 190.382812 223.242188 L 107.652344 166.179688 L 184.730469 54.433594 L 267.460938 111.496094 Z M 190.382812 223.242188 " clip-rule="nonzero"/></clipPath><clipPath id="d6f11e3777"><path d="M 190.382812 223.242188 L 107.652344 166.179688 L 184.730469 54.433594 L 267.460938 111.496094 Z M 190.382812 223.242188 " clip-rule="nonzero"/></clipPath><clipPath id="1c3924a7ae"><path d="M 208 123 L 210 123 L 210 128 L 208 128 Z M 208 123 " clip-rule="nonzero"/></clipPath><clipPath id="3c76934c7e"><path d="M 190.382812 223.242188 L 107.652344 166.179688 L 184.730469 54.433594 L 267.460938 111.496094 Z M 190.382812 223.242188 " clip-rule="nonzero"/></clipPath><clipPath id="b457648da9"><path d="M 190.382812 223.242188 L 107.652344 166.179688 L 184.730469 54.433594 L 267.460938 111.496094 Z M 190.382812 223.242188 " clip-rule="nonzero"/></clipPath><clipPath id="d1cc7f6fb3"><path d="M 190.382812 223.242188 L 107.652344 166.179688 L 184.730469 54.433594 L 267.460938 111.496094 Z M 190.382812 223.242188 " clip-rule="nonzero"/></clipPath><clipPath id="5ec0c441e1"><path d="M 188 119 L 192 119 L 192 133 L 188 133 Z M 188 119 " clip-rule="nonzero"/></clipPath><clipPath id="53336caad1"><path d="M 190.382812 223.242188 L 107.652344 166.179688 L 184.730469 54.433594 L 267.460938 111.496094 Z M 190.382812 223.242188 " clip-rule="nonzero"/></clipPath><clipPath id="cda87b50d1"><path d="M 190.382812 223.242188 L 107.652344 166.179688 L 184.730469 54.433594 L 267.460938 111.496094 Z M 190.382812 223.242188 " clip-rule="nonzero"/></clipPath><clipPath id="ac6e5e7ee3"><path d="M 190.382812 223.242188 L 107.652344 166.179688 L 184.730469 54.433594 L 267.460938 111.496094 Z M 190.382812 223.242188 " clip-rule="nonzero"/></clipPath></defs><g clip-path="url(#2bf392b35b)"><path fill="#18206f" d="M 187.5 213.664062 C 146.066406 213.664062 112.5 179.867188 112.5 138.664062 C 112.5 97.460938 146.066406 63.664062 187.5 63.664062 C 228.933594 63.664062 262.5 97.226562 262.5 138.664062 C 262.5 180.097656 228.703125 213.664062 187.5 213.664062 Z M 187.5 68.292969 C 148.609375 68.292969 117.128906 99.773438 117.128906 138.664062 C 117.128906 177.550781 148.609375 209.03125 187.5 209.03125 C 226.390625 209.03125 257.871094 177.550781 257.871094 138.664062 C 257.871094 99.773438 226.15625 68.292969 187.5 68.292969 Z M 187.5 68.292969 " fill-opacity="1" fill-rule="nonzero"/></g><g clip-path="url(#cbffc6e271)"><g clip-path="url(#82525f73cc)"><g clip-path="url(#b5c41610ab)"><g clip-path="url(#aa939b25db)"><path fill="#ee826c" d="M 228.734375 134.363281 C 228.890625 134.433594 229.050781 134.503906 229.207031 134.574219 C 228.890625 135.273438 228.699219 136.070312 228.238281 136.652344 C 226.570312 138.769531 224.738281 140.761719 223.097656 142.902344 C 218.40625 149.03125 212.503906 153.582031 205.101562 155.695312 C 189.65625 160.109375 176.046875 153.929688 169.804688 137.734375 C 169.378906 136.632812 169.109375 135.351562 169.199219 134.183594 C 169.511719 130.085938 169.679688 125.929688 170.523438 121.925781 C 171.882812 115.488281 174.96875 109.71875 178.777344 104.394531 C 181.261719 100.921875 184.328125 98.109375 188.867188 97.5625 C 189.402344 97.496094 189.984375 97.335938 190.421875 97.039062 C 190.859375 96.742188 191.148438 96.21875 191.5 95.792969 C 191.019531 95.488281 190.574219 95.058594 190.050781 94.917969 C 189.546875 94.78125 188.957031 94.894531 188.417969 94.988281 C 185.160156 95.546875 182.414062 97.09375 180.097656 99.421875 C 176.445312 103.09375 173.722656 107.398438 171.359375 111.992188 C 166.078125 122.253906 165.152344 133.109375 168.410156 143.878906 C 171.628906 154.53125 179.214844 161.472656 190.464844 163.328125 C 194.632812 164.015625 199.011719 163.460938 203.296875 163.4375 C 207.941406 163.410156 212.496094 162.808594 216.851562 161.089844 C 217.820312 160.703125 218.839844 160.347656 219.675781 159.753906 C 224.96875 156 230.164062 152.101562 235.5 148.414062 C 238.960938 146.023438 240.535156 142.761719 241.023438 138.71875 C 241.382812 135.773438 241.863281 132.832031 242.503906 129.933594 C 244.042969 122.984375 245.011719 116.035156 243.207031 109 C 242.179688 105 241.066406 101.023438 239.878906 97.066406 C 239.503906 95.820312 238.910156 94.578125 238.144531 93.53125 C 237.6875 92.902344 236.703125 92.664062 235.953125 92.246094 C 236.054688 93.054688 235.957031 93.953125 236.285156 94.648438 C 240.761719 104.132812 242.929688 113.972656 241.09375 124.476562 C 240.207031 129.574219 239.257812 134.660156 238.472656 139.773438 C 238.039062 142.597656 236.640625 144.640625 234.335938 146.222656 C 232.339844 147.59375 230.425781 149.078125 228.476562 150.519531 C 225.871094 152.441406 223.355469 154.5 220.644531 156.257812 C 218.730469 157.496094 216.550781 158.324219 214.492188 159.339844 C 214.40625 159.179688 214.324219 159.019531 214.238281 158.863281 C 214.566406 158.597656 214.859375 158.269531 215.222656 158.085938 C 219.496094 155.921875 223.125 152.914062 226.445312 149.511719 C 229.90625 145.960938 233.421875 142.457031 235.585938 137.871094 C 238.769531 131.132812 239.242188 123.855469 239.894531 116.625 C 240.246094 112.71875 239.585938 108.9375 238.046875 105.316406 C 236.652344 102.023438 235.386719 98.671875 233.898438 95.421875 C 233.246094 93.996094 232.347656 92.605469 231.277344 91.46875 C 227.730469 87.707031 224.070312 84.050781 220.417969 80.386719 C 218.203125 78.164062 215.601562 76.542969 212.53125 75.78125 C 212.035156 75.660156 211.433594 75.964844 210.878906 76.070312 C 211.117188 76.632812 211.289062 77.238281 211.625 77.734375 C 211.8125 78.011719 212.289062 78.085938 212.613281 78.285156 C 214.429688 79.414062 216.46875 80.300781 218 81.730469 C 222.011719 85.488281 225.851562 89.433594 229.644531 93.414062 C 230.71875 94.539062 231.578125 95.957031 232.222656 97.382812 C 233.578125 100.390625 234.792969 103.464844 235.941406 106.558594 C 236.550781 108.203125 237.207031 109.921875 237.308594 111.640625 C 237.910156 121.710938 236.859375 131.511719 231.015625 140.125 C 225.941406 147.609375 219.136719 153.242188 211.449219 157.996094 C 207.394531 160.5 203.246094 161.5625 198.617188 161.355469 C 197.628906 161.308594 196.636719 161.386719 195.644531 161.394531 C 186.128906 161.464844 178.605469 157.667969 173.203125 149.796875 C 172.738281 149.121094 172.441406 148.335938 172.066406 147.601562 C 172.210938 147.511719 172.355469 147.421875 172.503906 147.332031 C 173.042969 147.925781 173.542969 148.558594 174.132812 149.097656 C 176.550781 151.316406 178.710938 153.996094 181.488281 155.613281 C 190.890625 161.097656 200.644531 160.488281 210.335938 156.207031 C 216.371094 153.539062 220.875 148.980469 225.179688 144.097656 C 228.585938 140.238281 231.558594 136.222656 232.976562 131.21875 C 237.773438 114.25 234.726562 99.378906 221.410156 87.148438 C 216.148438 82.320312 210.589844 78.101562 203.414062 76.628906 C 202.210938 76.382812 200.910156 76.347656 199.691406 76.496094 C 195.933594 76.945312 192.183594 77.480469 188.445312 78.070312 C 182.023438 79.082031 175.910156 80.910156 171.484375 86.046875 C 168.5 89.507812 165.835938 93.238281 163.03125 96.851562 C 162.625 97.375 162.222656 97.898438 161.816406 98.421875 C 161.675781 98.335938 161.535156 98.246094 161.394531 98.15625 C 161.878906 97.210938 162.25 96.183594 162.871094 95.339844 C 165.152344 92.238281 167.539062 89.21875 169.824219 86.121094 C 170.144531 85.6875 170.113281 84.992188 170.246094 84.421875 C 169.582031 84.46875 168.75 84.277344 168.296875 84.605469 C 167.285156 85.34375 166.421875 86.304688 165.566406 87.234375 C 162.292969 90.796875 160.398438 95.191406 158.589844 99.550781 C 153.675781 111.367188 151.488281 123.820312 150.5625 136.511719 C 150.445312 138.109375 150.847656 139.816406 151.339844 141.367188 C 153.414062 147.925781 156.457031 153.996094 160.832031 159.355469 C 163.128906 162.164062 165.410156 164.988281 167.636719 167.855469 C 177.296875 180.289062 190.542969 184.652344 205.671875 184.773438 C 206.433594 184.78125 207.277344 184.726562 207.925781 184.394531 C 208.4375 184.128906 208.703125 183.390625 209.082031 182.863281 C 208.542969 182.613281 208.015625 182.171875 207.46875 182.140625 C 204.574219 181.976562 201.636719 182.179688 198.789062 181.757812 C 192.578125 180.835938 186.367188 179.617188 180.871094 176.398438 C 171.242188 170.761719 165.175781 161.84375 159.558594 152.566406 C 159.253906 152.058594 159.222656 151.382812 159.066406 150.785156 C 159.222656 150.710938 159.382812 150.636719 159.542969 150.558594 C 160.09375 151.386719 160.640625 152.21875 161.203125 153.039062 C 164.15625 157.34375 166.859375 161.84375 170.121094 165.898438 C 175.152344 172.152344 181.316406 177.246094 189.433594 178.625 C 197.109375 179.933594 204.941406 180.335938 212.714844 181.0625 C 213.171875 181.101562 213.695312 180.445312 214.1875 180.113281 C 213.8125 179.640625 213.515625 178.882812 213.039062 178.746094 C 212.003906 178.449219 210.878906 178.414062 209.785156 178.371094 C 205.390625 178.210938 200.972656 178.285156 196.597656 177.890625 C 193.449219 177.605469 190.34375 176.761719 187.242188 176.0625 C 186.613281 175.921875 186.089844 175.3125 185.519531 174.917969 C 185.589844 174.785156 185.660156 174.65625 185.730469 174.523438 C 186.355469 174.683594 186.980469 174.839844 187.605469 175 C 190.050781 175.632812 192.464844 176.507812 194.949219 176.859375 C 202.585938 177.945312 210.226562 177.15625 217.84375 176.421875 C 218.660156 176.339844 219.398438 175.457031 220.171875 174.945312 C 219.375 174.640625 218.558594 174.046875 217.777344 174.089844 C 214.480469 174.269531 211.195312 174.617188 207.910156 174.949219 C 202.054688 175.542969 196.253906 175.503906 190.574219 173.734375 C 183.847656 171.640625 177.246094 169.140625 172.253906 163.984375 C 167.152344 158.714844 162.972656 152.691406 159.792969 146.027344 C 157.390625 141 156.507812 135.824219 157.851562 130.296875 C 158.3125 128.394531 158.175781 126.351562 158.457031 124.394531 C 158.894531 121.367188 159.035156 118.207031 160.046875 115.367188 C 162.992188 107.089844 167.714844 99.761719 173.144531 92.894531 C 174.09375 91.691406 175.167969 90.550781 176.339844 89.5625 C 185.617188 81.738281 202.542969 82.542969 211.636719 91.351562 C 214.753906 94.367188 217.527344 97.730469 220.480469 100.917969 C 221.195312 101.691406 222.015625 103.121094 223.082031 102.269531 C 224.214844 101.359375 223.105469 100.132812 222.375 99.292969 C 220.320312 96.929688 218.199219 94.621094 216.070312 92.320312 C 210.660156 86.476562 204.023438 83 196.089844 82.082031 C 185.136719 80.816406 176.054688 84.050781 169.648438 93.386719 C 167.15625 97.023438 164.792969 100.753906 162.558594 104.554688 C 158.34375 111.71875 155.152344 119.222656 155.566406 127.796875 C 155.613281 128.722656 155.558594 129.6875 155.351562 130.59375 C 154.09375 136.054688 155.167969 141.1875 157.371094 146.195312 C 157.625 146.769531 157.65625 147.445312 157.789062 148.074219 C 157.621094 148.132812 157.453125 148.1875 157.285156 148.246094 C 156.765625 147.320312 156.207031 146.410156 155.734375 145.460938 C 153.613281 141.207031 152.089844 136.921875 153.316406 131.976562 C 154.210938 128.355469 154.507812 124.59375 155.164062 120.914062 C 155.664062 118.113281 155.847656 115.132812 156.96875 112.582031 C 160.648438 104.226562 165.414062 96.539062 171.53125 89.652344 C 179.183594 81.039062 188.5 78.609375 199.324219 81.457031 C 209.269531 84.070312 216.800781 90.222656 222.886719 98.339844 C 224.324219 100.257812 225.121094 102.351562 225.335938 104.714844 C 225.652344 108.171875 226.242188 111.625 226.257812 115.082031 C 226.277344 118.742188 226.175781 122.492188 225.410156 126.050781 C 223.433594 135.242188 217.464844 141.96875 210.839844 148.1875 C 210.441406 148.558594 209.972656 148.886719 209.480469 149.117188 C 204.691406 151.332031 199.710938 152.855469 194.390625 152.941406 C 190.441406 153.003906 186.730469 152.117188 183.570312 149.605469 C 182.195312 148.507812 180.894531 147.316406 179.582031 146.140625 C 174.226562 141.332031 171.90625 135.414062 173.101562 128.226562 C 173.273438 127.195312 173.449219 126.164062 173.628906 125.136719 C 174.546875 119.902344 176.316406 115.035156 179.773438 110.894531 C 183.621094 106.277344 190.394531 104.40625 195.765625 106.695312 C 196.972656 107.210938 198.058594 108.355469 198.832031 109.464844 C 200.179688 111.398438 201.132812 113.601562 202.453125 115.550781 C 203.585938 117.234375 204.070312 119.011719 203.464844 120.871094 C 202.089844 125.101562 200.769531 129.378906 198.988281 133.445312 C 197.386719 137.101562 194.605469 139.8125 190.421875 140.523438 C 187.738281 140.980469 185.429688 140.171875 183.683594 138.023438 C 181.941406 135.882812 181.390625 133.257812 181.214844 130.652344 C 180.847656 125.214844 182.660156 120.480469 187.023438 117.125 C 190.355469 114.5625 193.640625 115.9375 194.679688 119.996094 C 195.34375 122.582031 195.089844 125.117188 194.246094 127.636719 C 193.910156 128.65625 193.816406 129.757812 193.617188 130.820312 C 193.785156 130.875 193.953125 130.929688 194.125 130.988281 C 194.394531 130.753906 194.730469 130.5625 194.925781 130.277344 C 197.28125 126.886719 198.234375 123.207031 197.039062 119.15625 C 195.277344 113.207031 190.101562 111.566406 185.429688 115.636719 C 180.347656 120.066406 178.429688 125.949219 178.730469 132.515625 C 178.925781 136.882812 181.527344 140.195312 184.414062 143.210938 C 187.214844 146.132812 190.644531 147.519531 194.578125 145.996094 C 196.785156 145.140625 198.878906 143.804688 200.761719 142.34375 C 204.578125 139.382812 207.839844 135.847656 209.894531 131.410156 C 212.242188 126.347656 210.851562 120.859375 211.433594 115.589844 C 211.476562 115.195312 210.792969 114.722656 210.445312 114.289062 C 209.992188 114.699219 209.253906 115.042969 209.132812 115.539062 C 208.207031 119.421875 206.230469 123.066406 206.441406 127.21875 C 206.496094 128.3125 206.351562 129.417969 206.292969 130.519531 C 206.164062 132.898438 205.144531 134.898438 203.425781 136.476562 C 201.5625 138.183594 199.640625 139.851562 197.601562 141.332031 C 195.332031 142.980469 192.890625 144.417969 189.871094 143.828125 C 189.269531 143.710938 188.699219 143.4375 188.117188 143.234375 C 189.519531 142.84375 190.78125 142.910156 192.019531 142.773438 C 195.769531 142.359375 197.875 139.660156 199.707031 136.820312 C 204.351562 129.621094 206.246094 121.457031 207.421875 113.136719 C 207.957031 109.347656 206.238281 106.832031 202.632812 105.605469 C 197.652344 103.90625 192.546875 102.84375 187.242188 104.125 C 186.535156 104.292969 185.804688 104.363281 185.085938 104.476562 C 185.03125 104.328125 184.976562 104.179688 184.921875 104.03125 C 185.339844 103.742188 185.722656 103.3125 186.183594 103.195312 C 189.367188 102.367188 192.550781 101.074219 195.769531 100.960938 C 199.730469 100.824219 203.773438 101.804688 206.558594 105.023438 C 208.105469 106.8125 209.066406 109.101562 210.382812 111.105469 C 210.683594 111.558594 211.367188 111.761719 211.871094 112.082031 C 212.082031 111.515625 212.589844 110.859375 212.453125 110.402344 C 211.289062 106.539062 209.636719 103.023438 205.820312 100.960938 C 201.992188 98.894531 197.964844 98.46875 193.683594 98.601562 C 189.28125 98.738281 185.601562 100.269531 182.605469 103.355469 C 175.980469 110.179688 171.816406 118.238281 170.609375 127.761719 C 169.714844 134.8125 170.925781 141.125 176.476562 146.082031 C 177.085938 146.628906 177.597656 147.289062 178.167969 147.886719 C 181.527344 151.414062 185.226562 154.574219 190.257812 155.0625 C 193.777344 155.402344 197.425781 155.402344 200.910156 154.851562 C 205.6875 154.09375 210.316406 152.464844 213.863281 148.921875 C 216.273438 146.511719 218.527344 143.914062 220.597656 141.203125 C 229.828125 129.121094 231.355469 115.703125 227.078125 101.4375 C 226.515625 99.554688 225.367188 97.722656 224.097656 96.195312 C 221.960938 93.617188 219.472656 91.335938 217.203125 88.871094 C 214.855469 86.320312 212.164062 84.269531 209 82.863281 C 206.742188 81.859375 204.4375 80.949219 202.15625 79.988281 C 201.4375 79.683594 200.734375 79.347656 200.023438 79.027344 C 200.058594 78.859375 200.09375 78.695312 200.128906 78.53125 C 200.800781 78.515625 201.515625 78.335938 202.128906 78.515625 C 204.386719 79.183594 206.84375 79.585938 208.789062 80.792969 C 212.46875 83.066406 215.777344 85.929688 219.363281 88.363281 C 223.640625 91.265625 226.324219 95.328125 228.324219 99.945312 C 232.4375 109.429688 232.972656 119.222656 230.621094 129.21875 C 230.445312 129.980469 229.835938 130.902344 229.167969 131.238281 C 226.886719 132.386719 225.941406 134.453125 225.058594 136.597656 C 224.890625 137 224.953125 137.496094 224.894531 138.125 C 227.34375 137.789062 227.304688 135.335938 228.734375 134.363281 Z M 197.671875 109.144531 C 196.945312 108.738281 196.25 108.199219 195.464844 107.929688 C 190.542969 106.238281 186.332031 107.714844 182.769531 111.183594 C 178.039062 115.792969 175.988281 121.828125 174.589844 128.039062 C 172.949219 135.324219 176.53125 140.945312 181.121094 146.019531 C 185.191406 150.523438 190.394531 152.046875 196.375 151.421875 C 200.621094 150.976562 204.484375 149.621094 208.097656 147.351562 C 214.433594 143.375 219.132812 137.898438 221.578125 130.933594 C 223.738281 124.78125 224.21875 118.230469 223.746094 111.671875 C 223.441406 107.441406 221.769531 103.824219 219.007812 100.648438 C 216.1875 97.40625 212.800781 94.980469 209.019531 92.933594 C 199.265625 87.660156 189.886719 87.953125 180.683594 94.238281 C 177.34375 96.519531 174.691406 99.402344 172.5 102.757812 C 167.125 111.007812 162.707031 119.574219 162.644531 129.800781 C 162.597656 137.339844 164.023438 144.542969 167.550781 151.148438 C 172.457031 160.335938 180.566406 165.382812 190.527344 167.660156 C 195.242188 168.738281 199.96875 169.828125 204.738281 170.613281 C 207.027344 170.992188 209.503906 171.039062 211.773438 170.601562 C 218.828125 169.238281 225.28125 166.269531 231.253906 162.300781 C 232.601562 161.40625 233.695312 160.09375 234.78125 158.863281 C 235.089844 158.519531 234.957031 157.785156 235.027344 157.230469 C 234.453125 157.351562 233.757812 157.308594 233.332031 157.625 C 231.835938 158.738281 230.535156 160.132812 228.976562 161.144531 C 224.183594 164.257812 218.949219 166.441406 213.429688 167.902344 C 210.011719 168.808594 206.585938 168.660156 203.136719 167.824219 C 199.453125 166.933594 195.734375 166.195312 192.007812 165.488281 C 183.707031 163.910156 176.804688 160.050781 171.90625 153.050781 C 164.421875 142.355469 163.351562 130.609375 167.132812 118.421875 C 169.714844 110.101562 174.042969 102.699219 181.132812 97.234375 C 187.683594 92.183594 194.785156 89.761719 202.867188 92.976562 C 205.804688 94.148438 208.578125 95.78125 211.320312 97.386719 C 214.285156 99.121094 215.855469 101.921875 216.691406 105.199219 C 218.144531 110.914062 218.273438 116.648438 216.878906 122.371094 C 216.523438 123.832031 215.761719 125.21875 215.035156 126.558594 C 214.320312 127.871094 213.191406 128.992188 212.628906 130.359375 C 210.378906 135.792969 207.378906 140.515625 201.769531 143.070312 C 200.734375 143.539062 199.722656 144.144531 198.855469 144.871094 C 198.394531 145.257812 198.261719 146.035156 197.980469 146.640625 C 198.609375 146.792969 199.363281 147.25 199.84375 147.050781 C 201.441406 146.382812 203.019531 145.59375 204.460938 144.636719 C 209.132812 141.542969 212.972656 137.503906 215.699219 132.699219 C 220.011719 125.109375 221.085938 116.832031 219.4375 108.242188 C 219.21875 107.089844 218.886719 105.964844 218.605469 104.824219 C 218.800781 104.769531 218.992188 104.714844 219.1875 104.660156 C 219.445312 105.230469 219.738281 105.789062 219.960938 106.371094 C 221.234375 109.667969 221.691406 113.101562 221.378906 116.601562 C 220.695312 124.292969 219.890625 131.824219 214.703125 138.300781 C 209.480469 144.820312 202.773438 148.109375 194.808594 149.007812 C 187.386719 149.84375 178.488281 142.820312 177.394531 135.363281 C 176.152344 126.878906 178.488281 119.328125 184.382812 113.019531 C 185.019531 112.335938 186.304688 111.925781 187.273438 111.957031 C 189.121094 112.015625 190.949219 112.558594 192.804688 112.757812 C 195.804688 113.078125 197.566406 114.742188 198.460938 117.539062 C 200.417969 123.660156 196.542969 132.890625 190.796875 135.722656 C 188.792969 136.710938 187.574219 136.523438 185.84375 135.117188 C 185.445312 134.789062 184.828125 134.730469 184.308594 134.550781 C 184.222656 135.195312 183.898438 135.921875 184.085938 136.472656 C 184.734375 138.371094 186.394531 139.207031 188.578125 138.890625 C 191.550781 138.464844 194.03125 137.007812 195.921875 134.785156 C 199.910156 130.097656 201.9375 124.691406 201.113281 118.457031 C 200.597656 114.554688 198.480469 112 194.53125 111.167969 C 193.078125 110.863281 191.609375 110.636719 190.152344 110.34375 C 189.789062 110.273438 189.449219 110.082031 189.101562 109.945312 C 189.125 109.804688 189.148438 109.660156 189.171875 109.519531 C 189.738281 109.488281 190.320312 109.363281 190.867188 109.449219 C 192.332031 109.675781 193.78125 110 195.238281 110.277344 C 196.1875 110.453125 197.125 110.570312 197.671875 109.144531 Z M 136.449219 153.109375 C 136.664062 153.070312 136.882812 153.035156 137.097656 152.996094 C 137.265625 153.59375 137.476562 154.1875 137.597656 154.796875 C 138.382812 158.808594 139.359375 162.757812 141.40625 166.351562 C 144.535156 171.847656 147.460938 177.472656 150.855469 182.796875 C 153.890625 187.554688 157.273438 192.117188 160.855469 196.472656 C 162.117188 198.007812 164.398438 198.738281 166.292969 199.675781 C 166.648438 199.851562 167.378906 199.261719 167.933594 199.027344 C 167.609375 198.589844 167.382812 197.984375 166.949219 197.742188 C 163.621094 195.878906 160.691406 193.476562 158.683594 190.289062 C 153.203125 181.597656 147.9375 172.769531 142.617188 163.976562 C 142.246094 163.367188 142.089844 162.625 141.714844 161.625 C 142.175781 161.941406 142.34375 162.003906 142.429688 162.125 C 142.929688 162.84375 143.421875 163.578125 143.902344 164.3125 C 149.011719 172.136719 154.019531 180.027344 159.265625 187.757812 C 161.988281 191.769531 165.210938 195.417969 169.484375 197.921875 C 170.121094 198.296875 170.886719 198.574219 171.613281 198.625 C 172.042969 198.65625 172.507812 198.15625 172.957031 197.894531 C 172.671875 197.476562 172.484375 196.867188 172.09375 196.679688 C 168.269531 194.835938 165.207031 192.035156 162.855469 188.621094 C 156.21875 178.976562 149.753906 169.214844 143.25 159.480469 C 138.648438 152.59375 135.898438 145.222656 137.398438 136.738281 C 137.488281 136.210938 136.933594 135.570312 136.679688 134.984375 C 136.171875 135.457031 135.601562 135.882812 135.179688 136.421875 C 134.972656 136.6875 135.011719 137.164062 134.996094 137.546875 C 134.816406 141.726562 134.570312 145.902344 134.503906 150.085938 C 134.464844 152.5 134.640625 154.929688 134.84375 157.339844 C 135.257812 162.300781 136.679688 166.964844 139.304688 171.207031 C 143.957031 178.738281 148.605469 186.269531 153.363281 193.730469 C 154.414062 195.375 155.878906 196.769531 157.261719 198.175781 C 157.5625 198.484375 158.324219 198.339844 158.871094 198.402344 C 158.890625 197.84375 159.082031 197.207031 158.878906 196.742188 C 158.601562 196.113281 158.023438 195.617188 157.578125 195.058594 C 156.441406 193.648438 155.1875 192.320312 154.203125 190.8125 C 150.980469 185.890625 147.8125 180.929688 144.707031 175.933594 C 141.535156 170.832031 138.527344 165.621094 137.230469 159.667969 C 136.765625 157.527344 136.695312 155.296875 136.449219 153.109375 Z M 161.71875 166.917969 C 161.808594 166.855469 161.898438 166.792969 161.992188 166.730469 C 162.5625 167.429688 163.113281 168.148438 163.710938 168.824219 C 166.429688 171.910156 168.882812 175.300781 171.945312 177.992188 C 178.058594 183.367188 185.183594 187.042969 193.148438 188.945312 C 195.867188 189.597656 198.625 189.683594 201.246094 188.539062 C 201.878906 188.265625 202.285156 187.46875 202.792969 186.914062 C 202.085938 186.707031 201.320312 186.210938 200.683594 186.339844 C 197.699219 186.941406 194.8125 186.796875 191.886719 185.953125 C 182.035156 183.109375 173.746094 177.941406 167.296875 169.878906 C 164.449219 166.320312 161.15625 163.097656 158.503906 159.40625 C 154.628906 154.007812 152.308594 147.773438 150.117188 141.542969 C 148.109375 135.832031 148.625 130.054688 150.167969 124.324219 C 150.894531 121.613281 151.777344 118.945312 152.464844 116.226562 C 154.113281 109.722656 155.273438 103.070312 158.914062 97.226562 C 159.273438 96.652344 159.046875 95.710938 159.09375 94.941406 C 158.835938 94.847656 158.578125 94.753906 158.320312 94.664062 C 157.546875 95.59375 156.539062 96.414062 156.046875 97.476562 C 154.824219 100.117188 153.605469 102.796875 152.804688 105.582031 C 151.023438 111.769531 149.605469 118.0625 147.84375 124.253906 C 145.765625 131.566406 146.273438 138.617188 149.289062 145.550781 C 151.285156 150.140625 153.140625 154.789062 155.167969 159.359375 C 156.316406 161.957031 157.625 164.492188 158.972656 166.992188 C 159.675781 168.292969 160.679688 169.429688 161.441406 170.695312 C 165.660156 177.691406 171.167969 183.34375 178.609375 186.875 C 182.71875 188.824219 186.921875 190.585938 191.140625 192.296875 C 192.347656 192.785156 194.414062 193.390625 194.761719 191.859375 C 195.121094 190.289062 192.992188 190.246094 191.707031 189.921875 C 190.324219 189.574219 188.890625 189.351562 187.585938 188.816406 C 177.015625 184.484375 168.367188 177.789062 162.261719 168.015625 C 162.046875 167.671875 161.898438 167.285156 161.71875 166.917969 Z M 170.535156 101.644531 C 170.625 101.6875 170.714844 101.726562 170.804688 101.765625 C 172.027344 100.203125 173.242188 98.632812 174.476562 97.082031 C 180.238281 89.847656 188.378906 88.367188 196.890625 87.816406 C 197.425781 87.78125 198.003906 87.898438 198.511719 88.078125 C 201.65625 89.203125 204.777344 90.386719 207.925781 91.496094 C 208.433594 91.675781 209.042969 91.574219 209.601562 91.601562 C 209.335938 91.066406 209.210938 90.292969 208.777344 90.035156 C 204.847656 87.679688 200.816406 85.324219 196.078125 85.402344 C 190.523438 85.492188 185.207031 86.992188 180.054688 89.039062 C 179.507812 89.257812 179.003906 89.640625 178.550781 90.03125 C 167.171875 99.847656 160.332031 112.128906 158.988281 127.15625 C 157.996094 138.261719 159.996094 148.652344 167.570312 157.425781 C 175.640625 166.773438 185.964844 171.707031 197.992188 173.800781 C 207.210938 175.410156 215.796875 172.945312 224.445312 170.535156 C 225.273438 170.304688 226.503906 169.875 225.972656 168.675781 C 225.785156 168.261719 224.460938 168.078125 223.75 168.230469 C 221.332031 168.75 218.953125 169.460938 216.5625 170.113281 C 201.570312 174.21875 187.898438 171.148438 175.738281 161.90625 C 164.363281 153.261719 158.484375 140.640625 162.203125 123.003906 C 162.851562 119.945312 163.3125 116.78125 164.484375 113.914062 C 166.207031 109.703125 168.492188 105.722656 170.535156 101.644531 Z M 167.308594 184.414062 C 167.449219 184.238281 167.585938 184.058594 167.726562 183.882812 C 168.019531 184.019531 168.332031 184.128906 168.601562 184.304688 C 169.292969 184.753906 170 185.191406 170.636719 185.707031 C 175.480469 189.636719 180.828125 192.605469 186.855469 194.292969 C 187.425781 194.453125 188.050781 194.628906 188.613281 194.550781 C 189.019531 194.492188 189.5625 194.082031 189.679688 193.714844 C 189.757812 193.457031 189.300781 192.855469 188.945312 192.667969 C 188.070312 192.214844 187.128906 191.875 186.195312 191.554688 C 173.550781 187.183594 163.933594 179.195312 157.234375 167.59375 C 153.480469 161.09375 150.25 154.371094 147.53125 147.382812 C 144.632812 139.929688 143.636719 132.242188 144.964844 124.355469 C 145.835938 119.175781 147.613281 114.253906 150.253906 109.667969 C 150.789062 108.734375 151.421875 107.503906 150.132812 106.796875 C 149.828125 106.628906 148.433594 107.683594 148.113281 108.425781 C 146.476562 112.203125 144.695312 115.972656 143.574219 119.917969 C 140.808594 129.636719 141.800781 139.242188 145.40625 148.578125 C 149.347656 158.78125 154.246094 168.480469 160.925781 177.210938 C 161.648438 178.152344 161.996094 179.375 162.621094 180.402344 C 163.71875 182.21875 164.605469 184.292969 166.105469 185.710938 C 169.09375 188.53125 172.363281 191.078125 175.65625 193.550781 C 177.265625 194.753906 179.136719 195.671875 180.992188 196.472656 C 182.683594 197.203125 183.828125 196.625 184.535156 194.8125 C 181.042969 194.378906 178.023438 192.90625 175.328125 190.765625 C 172.65625 188.644531 169.980469 186.53125 167.308594 184.414062 Z M 171.390625 195.679688 C 171.496094 195.578125 171.601562 195.476562 171.710938 195.371094 C 171.980469 195.558594 172.234375 195.789062 172.527344 195.929688 C 173.808594 196.539062 175.082031 197.171875 176.40625 197.679688 C 176.691406 197.789062 177.160156 197.417969 177.546875 197.265625 C 177.375 196.898438 177.25 196.5 177.015625 196.175781 C 176.867188 195.96875 176.566406 195.871094 176.332031 195.730469 C 171.867188 193.015625 167.894531 189.695312 164.8125 185.480469 C 161.378906 180.785156 158.164062 175.925781 154.957031 171.066406 C 152.65625 167.585938 150.277344 164.121094 148.371094 160.421875 C 143.152344 150.304688 139.785156 139.726562 141.367188 128.082031 C 141.460938 127.410156 140.890625 126.648438 140.628906 125.929688 C 140.140625 126.457031 139.285156 126.945312 139.21875 127.519531 C 138.890625 130.390625 138.347656 133.328125 138.644531 136.164062 C 139.667969 145.886719 142.074219 155.300781 147.378906 163.617188 C 152.574219 171.765625 158.109375 179.707031 163.765625 187.546875 C 165.921875 190.535156 168.824219 192.984375 171.390625 195.679688 Z M 201.5625 165.253906 C 202.195312 165.816406 202.335938 165.996094 202.519531 166.089844 C 202.757812 166.214844 203.027344 166.316406 203.292969 166.351562 C 208.734375 167.058594 214.238281 166.988281 219.125 164.429688 C 224.40625 161.664062 229.542969 158.457031 234.285156 154.84375 C 241.148438 149.617188 245.609375 142.753906 246.160156 133.804688 C 246.25 132.28125 246.769531 130.785156 246.96875 129.261719 C 247.355469 126.328125 247.691406 123.390625 247.953125 120.445312 C 248.015625 119.761719 247.824219 118.988281 247.511719 118.375 C 247.320312 117.988281 246.683594 117.828125 246.246094 117.570312 C 246.054688 117.976562 245.734375 118.367188 245.699219 118.785156 C 245.5625 120.425781 245.671875 122.097656 245.414062 123.71875 C 244.652344 128.496094 243.761719 133.25 242.929688 138.015625 C 242.230469 142.058594 240.25 145.460938 237.570312 148.460938 C 232.441406 154.210938 226.074219 158.339844 219.328125 161.875 C 217.417969 162.875 215.214844 163.507812 213.074219 163.824219 C 210.042969 164.277344 206.945312 164.25 203.878906 164.5 C 203.210938 164.554688 202.5625 164.917969 201.5625 165.253906 Z M 187.742188 121.433594 C 187.925781 121.460938 188.109375 121.488281 188.292969 121.519531 C 188.148438 122.566406 188.089844 123.636719 187.839844 124.660156 C 187.34375 126.683594 186.691406 128.675781 186.199219 130.703125 C 185.742188 132.5625 186.304688 133.882812 187.636719 134.464844 C 188.992188 135.054688 190.21875 134.523438 191.292969 132.78125 C 192.871094 130.226562 193.453125 127.355469 193.523438 124.425781 C 193.570312 122.636719 193.40625 120.773438 192.914062 119.066406 C 192.25 116.753906 189.847656 116.089844 187.871094 117.5 C 187.167969 118.003906 186.539062 118.660156 186.007812 119.347656 C 183.230469 122.925781 182.515625 127.109375 182.648438 131.480469 C 182.667969 132.070312 183.320312 133.046875 183.808594 133.136719 C 184.878906 133.328125 185.058594 132.308594 185.113281 131.460938 C 185.199219 130.148438 185.109375 128.8125 185.3125 127.523438 C 185.664062 125.324219 185.894531 123.035156 187.742188 121.433594 Z M 149.101562 194.628906 C 149.773438 194.558594 150.414062 194.488281 151.054688 194.421875 C 150.964844 193.835938 151.027344 193.167969 150.753906 192.691406 C 150.296875 191.886719 149.539062 191.261719 149.058594 190.46875 C 145.269531 184.226562 141.496094 177.980469 137.765625 171.703125 C 135.914062 168.59375 134.828125 165.222656 134.507812 161.585938 C 134.308594 159.34375 133.917969 157.109375 133.492188 154.898438 C 133.375 154.285156 132.824219 153.753906 132.476562 153.1875 C 132.15625 153.8125 131.621094 154.417969 131.566406 155.066406 C 131.476562 156.089844 131.691406 157.144531 131.804688 158.179688 C 131.90625 159.109375 132.121094 160.03125 132.15625 160.960938 C 132.304688 165.003906 133.390625 168.789062 135.359375 172.285156 C 138.621094 178.078125 141.9375 183.839844 145.332031 189.550781 C 146.363281 191.28125 147.734375 192.808594 149.101562 194.628906 Z M 212.917969 125.101562 C 213.109375 125.179688 213.304688 125.257812 213.496094 125.335938 C 213.945312 124.683594 214.5625 124.09375 214.816406 123.375 C 217.210938 116.582031 217.410156 109.949219 213.59375 103.484375 C 209.738281 96.941406 203.949219 93.945312 196.558594 93.65625 C 195.640625 93.621094 194.691406 93.804688 193.800781 94.054688 C 193.425781 94.15625 192.867188 94.773438 192.929688 95.019531 C 193.042969 95.460938 193.5 95.921875 193.929688 96.144531 C 194.265625 96.320312 194.78125 96.167969 195.214844 96.132812 C 206.59375 95.210938 215.828125 105.144531 214.046875 116.398438 C 213.6875 118.683594 213.277344 120.957031 212.933594 123.246094 C 212.84375 123.851562 212.917969 124.480469 212.917969 125.101562 Z M 138.167969 186.449219 C 139.292969 186.660156 140.109375 186.8125 140.925781 186.96875 C 140.839844 186.265625 140.9375 185.472656 140.640625 184.875 C 139.039062 181.6875 137.378906 178.527344 135.644531 175.40625 C 135.363281 174.898438 134.617188 174.652344 134.085938 174.289062 C 133.949219 174.871094 133.59375 175.511719 133.722656 176.03125 C 134.203125 178.007812 134.679688 180.011719 135.464844 181.875 C 136.152344 183.496094 137.257812 184.941406 138.167969 186.449219 Z M 185.992188 75.753906 C 185.925781 76.113281 185.683594 76.613281 185.832031 76.800781 C 186.054688 77.078125 186.578125 77.296875 186.933594 77.25 C 189.65625 76.898438 192.382812 76.539062 195.078125 76.027344 C 195.660156 75.914062 196.128906 75.179688 196.648438 74.730469 C 196.074219 74.304688 195.464844 73.46875 194.941406 73.523438 C 192.449219 73.765625 189.976562 74.207031 187.519531 74.691406 C 186.984375 74.796875 186.535156 75.359375 185.992188 75.753906 Z M 232.785156 144.707031 C 235.003906 144.6875 236.609375 143.160156 237.089844 141.171875 C 237.257812 140.457031 237.035156 139.652344 236.992188 138.886719 C 236.746094 138.851562 236.503906 138.8125 236.257812 138.777344 C 235.101562 140.753906 233.945312 142.730469 232.785156 144.707031 Z M 232.785156 144.707031 " fill-opacity="1" fill-rule="nonzero"/></g></g></g></g><g clip-path="url(#2b5b49edde)"><g clip-path="url(#1f0d347afc)"><g clip-path="url(#13050bc927)"><g clip-path="url(#8471f52892)"><path fill="#ee826c" d="M 228.734375 134.363281 C 227.304688 135.335938 227.34375 137.789062 224.898438 138.125 C 224.957031 137.5 224.890625 137 225.058594 136.597656 C 225.941406 134.453125 226.886719 132.386719 229.167969 131.238281 C 229.835938 130.90625 230.445312 129.980469 230.625 129.21875 C 232.976562 119.222656 232.4375 109.433594 228.324219 99.945312 C 226.324219 95.332031 223.644531 91.265625 219.363281 88.363281 C 215.777344 85.929688 212.46875 83.070312 208.792969 80.792969 C 206.84375 79.589844 204.386719 79.183594 202.128906 78.519531 C 201.515625 78.335938 200.800781 78.519531 200.132812 78.53125 C 200.097656 78.699219 200.058594 78.863281 200.027344 79.027344 C 200.734375 79.347656 201.441406 79.6875 202.160156 79.992188 C 204.4375 80.953125 206.742188 81.859375 209.003906 82.867188 C 212.164062 84.273438 214.859375 86.324219 217.203125 88.871094 C 219.476562 91.339844 221.960938 93.621094 224.097656 96.195312 C 225.367188 97.726562 226.515625 99.554688 227.082031 101.441406 C 231.355469 115.707031 229.828125 129.121094 220.597656 141.203125 C 218.527344 143.914062 216.273438 146.515625 213.867188 148.921875 C 210.320312 152.46875 205.6875 154.09375 200.910156 154.851562 C 197.429688 155.40625 193.777344 155.40625 190.261719 155.066406 C 185.226562 154.578125 181.53125 151.417969 178.167969 147.890625 C 177.601562 147.292969 177.089844 146.632812 176.476562 146.085938 C 170.925781 141.128906 169.714844 134.816406 170.609375 127.761719 C 171.816406 118.238281 175.980469 110.179688 182.609375 103.359375 C 185.605469 100.269531 189.28125 98.742188 193.6875 98.601562 C 197.964844 98.46875 201.996094 98.898438 205.820312 100.964844 C 209.640625 103.027344 211.289062 106.542969 212.453125 110.402344 C 212.59375 110.863281 212.082031 111.519531 211.871094 112.082031 C 211.367188 111.765625 210.683594 111.5625 210.382812 111.105469 C 209.066406 109.101562 208.109375 106.8125 206.558594 105.023438 C 203.773438 101.808594 199.730469 100.824219 195.769531 100.960938 C 192.550781 101.074219 189.367188 102.371094 186.183594 103.195312 C 185.722656 103.316406 185.34375 103.746094 184.921875 104.03125 C 184.976562 104.179688 185.03125 104.332031 185.085938 104.480469 C 185.804688 104.363281 186.535156 104.292969 187.242188 104.125 C 192.546875 102.84375 197.65625 103.910156 202.636719 105.605469 C 206.238281 106.832031 207.957031 109.351562 207.421875 113.140625 C 206.246094 121.457031 204.355469 129.625 199.707031 136.824219 C 197.875 139.664062 195.769531 142.363281 192.019531 142.773438 C 190.78125 142.910156 189.519531 142.84375 188.117188 143.234375 C 188.699219 143.4375 189.269531 143.710938 189.871094 143.828125 C 192.894531 144.421875 195.332031 142.984375 197.601562 141.335938 C 199.644531 139.851562 201.5625 138.183594 203.425781 136.476562 C 205.148438 134.902344 206.164062 132.902344 206.292969 130.519531 C 206.355469 129.417969 206.5 128.3125 206.441406 127.21875 C 206.230469 123.066406 208.210938 119.421875 209.136719 115.539062 C 209.253906 115.046875 209.996094 114.703125 210.445312 114.289062 C 210.792969 114.726562 211.480469 115.199219 211.4375 115.589844 C 210.855469 120.859375 212.246094 126.347656 209.898438 131.414062 C 207.839844 135.851562 204.578125 139.386719 200.761719 142.347656 C 198.882812 143.808594 196.785156 145.140625 194.578125 145.996094 C 190.644531 147.519531 187.214844 146.132812 184.414062 143.210938 C 181.527344 140.199219 178.925781 136.886719 178.730469 132.519531 C 178.429688 125.949219 180.347656 120.066406 185.429688 115.636719 C 190.101562 111.570312 195.277344 113.210938 197.039062 119.160156 C 198.238281 123.207031 197.28125 126.886719 194.929688 130.277344 C 194.730469 130.5625 194.398438 130.753906 194.125 130.988281 C 193.957031 130.933594 193.785156 130.875 193.617188 130.820312 C 193.820312 129.757812 193.910156 128.65625 194.25 127.640625 C 195.089844 125.117188 195.34375 122.582031 194.683594 119.996094 C 193.640625 115.9375 190.355469 114.5625 187.027344 117.125 C 182.660156 120.480469 180.851562 125.21875 181.21875 130.652344 C 181.394531 133.257812 181.945312 135.882812 183.683594 138.023438 C 185.433594 140.171875 187.738281 140.980469 190.425781 140.523438 C 194.605469 139.8125 197.386719 137.101562 198.988281 133.445312 C 200.769531 129.378906 202.09375 125.105469 203.464844 120.871094 C 204.070312 119.011719 203.589844 117.238281 202.453125 115.554688 C 201.136719 113.601562 200.179688 111.398438 198.832031 109.46875 C 198.058594 108.355469 196.976562 107.210938 195.769531 106.695312 C 190.394531 104.40625 183.621094 106.28125 179.773438 110.894531 C 176.320312 115.039062 174.550781 119.90625 173.628906 125.136719 C 173.449219 126.167969 173.273438 127.195312 173.101562 128.226562 C 171.90625 135.417969 174.226562 141.332031 179.582031 146.140625 C 180.894531 147.316406 182.195312 148.511719 183.574219 149.605469 C 186.734375 152.117188 190.441406 153.003906 194.390625 152.941406 C 199.710938 152.855469 204.691406 151.335938 209.480469 149.117188 C 209.972656 148.890625 210.445312 148.558594 210.839844 148.1875 C 217.46875 141.972656 223.433594 135.242188 225.410156 126.050781 C 226.175781 122.492188 226.28125 118.742188 226.257812 115.082031 C 226.242188 111.625 225.652344 108.171875 225.335938 104.714844 C 225.121094 102.351562 224.328125 100.261719 222.886719 98.339844 C 216.804688 90.222656 209.273438 84.070312 199.328125 81.457031 C 188.503906 78.613281 179.183594 81.042969 171.53125 89.65625 C 165.414062 96.542969 160.652344 104.230469 156.972656 112.582031 C 155.847656 115.132812 155.664062 118.113281 155.164062 120.914062 C 154.507812 124.597656 154.210938 128.359375 153.316406 131.976562 C 152.089844 136.921875 153.617188 141.210938 155.734375 145.460938 C 156.207031 146.414062 156.765625 147.320312 157.285156 148.246094 C 157.453125 148.191406 157.621094 148.132812 157.789062 148.074219 C 157.65625 147.445312 157.625 146.773438 157.371094 146.195312 C 155.171875 141.1875 154.09375 136.054688 155.351562 130.59375 C 155.5625 129.691406 155.613281 128.726562 155.566406 127.796875 C 155.152344 119.222656 158.34375 111.71875 162.558594 104.554688 C 164.792969 100.757812 167.15625 97.023438 169.648438 93.390625 C 176.054688 84.050781 185.136719 80.820312 196.089844 82.085938 C 204.023438 83 210.660156 86.476562 216.070312 92.320312 C 218.199219 94.621094 220.320312 96.929688 222.375 99.296875 C 223.105469 100.132812 224.21875 101.363281 223.082031 102.269531 C 222.015625 103.125 221.195312 101.691406 220.480469 100.921875 C 217.53125 97.730469 214.753906 94.367188 211.636719 91.351562 C 202.542969 82.546875 185.617188 81.738281 176.339844 89.5625 C 175.167969 90.550781 174.097656 91.691406 173.144531 92.894531 C 167.71875 99.765625 162.992188 107.089844 160.046875 115.371094 C 159.035156 118.207031 158.894531 121.367188 158.457031 124.394531 C 158.175781 126.355469 158.3125 128.394531 157.851562 130.300781 C 156.507812 135.824219 157.390625 141 159.792969 146.027344 C 162.972656 152.695312 167.152344 158.714844 172.253906 163.984375 C 177.246094 169.140625 183.847656 171.644531 190.574219 173.738281 C 196.257812 175.503906 202.058594 175.542969 207.910156 174.953125 C 211.195312 174.621094 214.484375 174.273438 217.777344 174.089844 C 218.558594 174.046875 219.375 174.644531 220.171875 174.945312 C 219.398438 175.457031 218.660156 176.34375 217.84375 176.421875 C 210.226562 177.15625 202.589844 177.945312 194.953125 176.863281 C 192.464844 176.507812 190.050781 175.636719 187.605469 175 C 186.980469 174.839844 186.355469 174.683594 185.730469 174.527344 C 185.660156 174.65625 185.589844 174.789062 185.519531 174.917969 C 186.09375 175.3125 186.613281 175.921875 187.242188 176.066406 C 190.34375 176.765625 193.449219 177.609375 196.601562 177.890625 C 200.972656 178.285156 205.390625 178.214844 209.785156 178.375 C 210.878906 178.414062 212.003906 178.453125 213.039062 178.75 C 213.515625 178.882812 213.8125 179.640625 214.1875 180.117188 C 213.695312 180.449219 213.171875 181.105469 212.714844 181.0625 C 204.945312 180.339844 197.109375 179.933594 189.433594 178.628906 C 181.320312 177.246094 175.152344 172.152344 170.121094 165.898438 C 166.859375 161.84375 164.15625 157.34375 161.203125 153.039062 C 160.640625 152.21875 160.097656 151.386719 159.542969 150.5625 C 159.382812 150.636719 159.226562 150.710938 159.066406 150.789062 C 159.222656 151.382812 159.253906 152.0625 159.5625 152.570312 C 165.175781 161.84375 171.242188 170.761719 180.871094 176.402344 C 186.367188 179.621094 192.578125 180.835938 198.789062 181.757812 C 201.636719 182.179688 204.574219 181.976562 207.46875 182.144531 C 208.019531 182.175781 208.542969 182.613281 209.082031 182.863281 C 208.707031 183.394531 208.4375 184.132812 207.925781 184.394531 C 207.28125 184.730469 206.433594 184.78125 205.675781 184.773438 C 190.542969 184.65625 177.296875 180.289062 167.640625 167.859375 C 165.410156 164.992188 163.128906 162.167969 160.832031 159.355469 C 156.457031 154 153.417969 147.929688 151.339844 141.371094 C 150.847656 139.816406 150.449219 138.109375 150.5625 136.515625 C 151.492188 123.824219 153.675781 111.367188 158.589844 99.550781 C 160.402344 95.195312 162.292969 90.800781 165.566406 87.238281 C 166.421875 86.304688 167.285156 85.34375 168.296875 84.609375 C 168.753906 84.277344 169.585938 84.46875 170.246094 84.421875 C 170.117188 84.996094 170.144531 85.6875 169.828125 86.121094 C 167.539062 89.21875 165.152344 92.242188 162.871094 95.339844 C 162.25 96.183594 161.878906 97.214844 161.394531 98.15625 C 161.535156 98.246094 161.675781 98.335938 161.816406 98.425781 C 162.222656 97.898438 162.625 97.375 163.03125 96.851562 C 165.835938 93.242188 168.503906 89.507812 171.484375 86.046875 C 175.910156 80.910156 182.027344 79.082031 188.445312 78.070312 C 192.183594 77.484375 195.933594 76.945312 199.691406 76.496094 C 200.914062 76.347656 202.210938 76.382812 203.414062 76.628906 C 210.589844 78.101562 216.152344 82.320312 221.410156 87.152344 C 234.730469 99.378906 237.777344 114.253906 232.976562 131.21875 C 231.5625 136.222656 228.585938 140.242188 225.183594 144.101562 C 220.878906 148.980469 216.371094 153.539062 210.335938 156.207031 C 200.644531 160.488281 190.890625 161.097656 181.488281 155.617188 C 178.710938 153.996094 176.554688 151.316406 174.132812 149.101562 C 173.546875 148.5625 173.046875 147.925781 172.503906 147.335938 C 172.359375 147.425781 172.210938 147.511719 172.066406 147.601562 C 172.441406 148.335938 172.742188 149.125 173.203125 149.796875 C 178.605469 157.667969 186.128906 161.464844 195.644531 161.394531 C 196.636719 161.386719 197.632812 161.308594 198.621094 161.355469 C 203.246094 161.566406 207.394531 160.503906 211.449219 157.996094 C 219.136719 153.242188 225.941406 147.609375 231.019531 140.128906 C 236.859375 131.515625 237.910156 121.710938 237.308594 111.640625 C 237.207031 109.921875 236.550781 108.203125 235.941406 106.5625 C 234.792969 103.46875 233.578125 100.390625 232.222656 97.382812 C 231.578125 95.957031 230.71875 94.539062 229.644531 93.414062 C 225.851562 89.433594 222.011719 85.488281 218 81.734375 C 216.46875 80.300781 214.429688 79.414062 212.617188 78.285156 C 212.292969 78.085938 211.816406 78.011719 211.625 77.734375 C 211.289062 77.242188 211.121094 76.632812 210.882812 76.074219 C 211.433594 75.964844 212.039062 75.660156 212.535156 75.785156 C 215.601562 76.546875 218.207031 78.167969 220.421875 80.390625 C 224.070312 84.054688 227.730469 87.707031 231.277344 91.46875 C 232.347656 92.605469 233.246094 94 233.898438 95.421875 C 235.386719 98.671875 236.652344 102.023438 238.050781 105.316406 C 239.585938 108.941406 240.246094 112.71875 239.894531 116.625 C 239.242188 123.859375 238.769531 131.132812 235.585938 137.871094 C 233.421875 142.460938 229.910156 145.964844 226.445312 149.515625 C 223.128906 152.917969 219.496094 155.921875 215.226562 158.085938 C 214.859375 158.269531 214.566406 158.601562 214.242188 158.863281 C 214.324219 159.023438 214.40625 159.179688 214.492188 159.339844 C 216.550781 158.328125 218.730469 157.496094 220.644531 156.257812 C 223.359375 154.503906 225.875 152.445312 228.476562 150.519531 C 230.425781 149.078125 232.339844 147.59375 234.335938 146.226562 C 236.644531 144.640625 238.042969 142.597656 238.476562 139.773438 C 239.257812 134.660156 240.207031 129.574219 241.097656 124.480469 C 242.929688 113.976562 240.765625 104.132812 236.285156 94.652344 C 235.957031 93.953125 236.054688 93.054688 235.957031 92.25 C 236.703125 92.664062 237.6875 92.90625 238.148438 93.535156 C 238.914062 94.578125 239.507812 95.820312 239.878906 97.066406 C 241.066406 101.023438 242.183594 105.003906 243.207031 109.003906 C 245.011719 116.035156 244.042969 122.988281 242.507812 129.933594 C 241.863281 132.832031 241.382812 135.773438 241.023438 138.722656 C 240.535156 142.761719 238.960938 146.023438 235.5 148.414062 C 230.164062 152.105469 224.972656 156 219.679688 159.753906 C 218.839844 160.347656 217.820312 160.707031 216.851562 161.089844 C 212.5 162.8125 207.941406 163.410156 203.296875 163.4375 C 199.011719 163.460938 194.632812 164.015625 190.464844 163.328125 C 179.214844 161.472656 171.628906 154.53125 168.410156 143.878906 C 165.15625 133.113281 166.078125 122.253906 171.359375 111.992188 C 173.726562 107.398438 176.445312 103.09375 180.101562 99.421875 C 182.417969 97.097656 185.164062 95.546875 188.417969 94.988281 C 188.957031 94.894531 189.550781 94.785156 190.054688 94.917969 C 190.578125 95.058594 191.023438 95.488281 191.5 95.792969 C 191.148438 96.21875 190.859375 96.742188 190.421875 97.042969 C 189.984375 97.339844 189.402344 97.5 188.867188 97.5625 C 184.328125 98.109375 181.261719 100.925781 178.78125 104.398438 C 174.972656 109.722656 171.882812 115.488281 170.523438 121.925781 C 169.679688 125.929688 169.511719 130.085938 169.199219 134.183594 C 169.109375 135.351562 169.378906 136.632812 169.804688 137.738281 C 176.046875 153.929688 189.65625 160.109375 205.105469 155.695312 C 212.503906 153.582031 218.40625 149.03125 223.097656 142.90625 C 224.738281 140.765625 226.570312 138.773438 228.242188 136.652344 C 228.703125 136.070312 228.894531 135.273438 229.207031 134.578125 C 229.050781 134.503906 228.890625 134.433594 228.734375 134.363281 Z M 204.226562 114.378906 C 205.296875 111.867188 204.734375 109.65625 203.09375 108.910156 C 202.671875 108.71875 202.011719 108.757812 201.597656 108.96875 C 201.414062 109.058594 201.398438 109.921875 201.59375 110.265625 C 202.335938 111.5625 203.199219 112.792969 204.226562 114.378906 Z M 209.386719 123.648438 C 209.144531 123.628906 208.90625 123.605469 208.664062 123.585938 C 208.574219 124.90625 208.484375 126.230469 208.394531 127.550781 C 208.613281 127.566406 208.832031 127.582031 209.050781 127.597656 C 209.160156 126.28125 209.273438 124.964844 209.386719 123.648438 Z M 209.386719 123.648438 " fill-opacity="1" fill-rule="evenodd"/></g></g></g></g><g clip-path="url(#77ae790561)"><g clip-path="url(#a252f67938)"><g clip-path="url(#4d405482d0)"><g clip-path="url(#4cd6b3ff5d)"><path fill="#ee826c" d="M 197.671875 109.144531 C 197.125 110.570312 196.1875 110.453125 195.238281 110.277344 C 193.78125 110.003906 192.332031 109.675781 190.867188 109.449219 C 190.320312 109.363281 189.738281 109.488281 189.171875 109.519531 C 189.148438 109.660156 189.125 109.804688 189.101562 109.945312 C 189.449219 110.082031 189.789062 110.273438 190.152344 110.34375 C 191.609375 110.636719 193.078125 110.863281 194.53125 111.171875 C 198.480469 112 200.597656 114.554688 201.113281 118.457031 C 201.9375 124.691406 199.910156 130.097656 195.921875 134.785156 C 194.03125 137.007812 191.550781 138.464844 188.578125 138.890625 C 186.394531 139.207031 184.734375 138.375 184.085938 136.472656 C 183.898438 135.921875 184.222656 135.195312 184.308594 134.550781 C 184.828125 134.730469 185.445312 134.789062 185.84375 135.117188 C 187.574219 136.523438 188.792969 136.710938 190.796875 135.722656 C 196.542969 132.890625 200.417969 123.660156 198.460938 117.539062 C 197.566406 114.742188 195.804688 113.078125 192.804688 112.757812 C 190.949219 112.558594 189.121094 112.015625 187.273438 111.957031 C 186.304688 111.929688 185.019531 112.335938 184.382812 113.019531 C 178.488281 119.328125 176.152344 126.878906 177.394531 135.363281 C 178.488281 142.820312 187.386719 149.84375 194.804688 149.007812 C 202.773438 148.109375 209.480469 144.820312 214.703125 138.300781 C 219.890625 131.824219 220.695312 124.292969 221.378906 116.601562 C 221.691406 113.101562 221.234375 109.667969 219.960938 106.371094 C 219.734375 105.789062 219.445312 105.230469 219.1875 104.660156 C 218.992188 104.714844 218.800781 104.769531 218.605469 104.824219 C 218.886719 105.964844 219.21875 107.09375 219.4375 108.242188 C 221.085938 116.832031 220.011719 125.109375 215.699219 132.699219 C 212.972656 137.503906 209.132812 141.546875 204.460938 144.636719 C 203.019531 145.59375 201.441406 146.378906 199.84375 147.050781 C 199.363281 147.25 198.609375 146.796875 197.980469 146.640625 C 198.261719 146.039062 198.394531 145.257812 198.855469 144.871094 C 199.722656 144.144531 200.734375 143.539062 201.769531 143.070312 C 207.378906 140.515625 210.378906 135.792969 212.628906 130.359375 C 213.191406 128.992188 214.320312 127.871094 215.035156 126.558594 C 215.761719 125.21875 216.523438 123.832031 216.878906 122.371094 C 218.273438 116.648438 218.144531 110.914062 216.691406 105.199219 C 215.855469 101.921875 214.285156 99.121094 211.320312 97.386719 C 208.578125 95.78125 205.804688 94.148438 202.867188 92.976562 C 194.785156 89.761719 187.683594 92.183594 181.132812 97.234375 C 174.042969 102.699219 169.714844 110.101562 167.132812 118.421875 C 163.351562 130.609375 164.421875 142.355469 171.90625 153.050781 C 176.804688 160.050781 183.707031 163.910156 192.007812 165.488281 C 195.734375 166.195312 199.453125 166.933594 203.136719 167.824219 C 206.585938 168.660156 210.011719 168.808594 213.429688 167.902344 C 218.949219 166.441406 224.179688 164.257812 228.976562 161.144531 C 230.535156 160.132812 231.835938 158.742188 233.328125 157.625 C 233.757812 157.308594 234.453125 157.351562 235.027344 157.230469 C 234.957031 157.785156 235.089844 158.519531 234.78125 158.863281 C 233.695312 160.09375 232.597656 161.40625 231.25 162.300781 C 225.28125 166.269531 218.828125 169.238281 211.773438 170.601562 C 209.503906 171.039062 207.027344 170.992188 204.738281 170.613281 C 199.96875 169.828125 195.242188 168.738281 190.527344 167.660156 C 180.566406 165.382812 172.457031 160.335938 167.550781 151.148438 C 164.023438 144.542969 162.597656 137.339844 162.644531 129.800781 C 162.707031 119.574219 167.125 111.007812 172.5 102.757812 C 174.691406 99.402344 177.34375 96.519531 180.683594 94.238281 C 189.886719 87.953125 199.265625 87.660156 209.019531 92.933594 C 212.800781 94.980469 216.1875 97.40625 219.007812 100.648438 C 221.769531 103.824219 223.441406 107.441406 223.746094 111.671875 C 224.21875 118.230469 223.738281 124.78125 221.578125 130.933594 C 219.132812 137.898438 214.433594 143.375 208.097656 147.351562 C 204.484375 149.621094 200.621094 150.976562 196.375 151.421875 C 190.394531 152.046875 185.191406 150.523438 181.121094 146.023438 C 176.53125 140.945312 172.949219 135.324219 174.585938 128.039062 C 175.988281 121.828125 178.039062 115.792969 182.769531 111.183594 C 186.332031 107.714844 190.542969 106.238281 195.464844 107.933594 C 196.25 108.199219 196.945312 108.738281 197.671875 109.144531 Z M 197.671875 109.144531 " fill-opacity="1" fill-rule="evenodd"/></g></g></g></g><g clip-path="url(#fbaafa6146)"><g clip-path="url(#e3a27e8d24)"><g clip-path="url(#a0589bd02a)"><g clip-path="url(#f16fefaeaf)"><path fill="#ee826c" d="M 136.449219 153.109375 C 136.695312 155.296875 136.765625 157.527344 137.230469 159.667969 C 138.527344 165.621094 141.535156 170.832031 144.707031 175.933594 C 147.8125 180.929688 150.980469 185.890625 154.203125 190.8125 C 155.1875 192.320312 156.441406 193.648438 157.578125 195.058594 C 158.023438 195.617188 158.601562 196.113281 158.878906 196.742188 C 159.082031 197.207031 158.890625 197.84375 158.871094 198.402344 C 158.324219 198.339844 157.5625 198.484375 157.261719 198.175781 C 155.878906 196.769531 154.414062 195.375 153.363281 193.730469 C 148.605469 186.269531 143.957031 178.738281 139.304688 171.207031 C 136.679688 166.964844 135.257812 162.300781 134.84375 157.339844 C 134.640625 154.929688 134.460938 152.5 134.503906 150.085938 C 134.570312 145.902344 134.816406 141.726562 134.996094 137.546875 C 135.011719 137.164062 134.972656 136.683594 135.179688 136.421875 C 135.601562 135.882812 136.171875 135.457031 136.679688 134.984375 C 136.933594 135.570312 137.488281 136.210938 137.398438 136.738281 C 135.898438 145.222656 138.648438 152.59375 143.25 159.480469 C 149.753906 169.214844 156.21875 178.976562 162.855469 188.621094 C 165.207031 192.035156 168.269531 194.835938 172.09375 196.679688 C 172.484375 196.867188 172.671875 197.476562 172.957031 197.894531 C 172.507812 198.15625 172.042969 198.65625 171.613281 198.625 C 170.886719 198.574219 170.121094 198.296875 169.484375 197.921875 C 165.210938 195.417969 161.988281 191.769531 159.265625 187.757812 C 154.019531 180.027344 149.011719 172.136719 143.902344 164.3125 C 143.421875 163.578125 142.929688 162.84375 142.429688 162.125 C 142.34375 162.003906 142.175781 161.941406 141.714844 161.625 C 142.089844 162.625 142.246094 163.367188 142.617188 163.976562 C 147.9375 172.769531 153.203125 181.597656 158.683594 190.289062 C 160.691406 193.476562 163.621094 195.878906 166.949219 197.742188 C 167.382812 197.984375 167.609375 198.589844 167.933594 199.027344 C 167.378906 199.261719 166.648438 199.851562 166.292969 199.675781 C 164.398438 198.738281 162.117188 198.007812 160.855469 196.472656 C 157.273438 192.117188 153.890625 187.554688 150.855469 182.796875 C 147.460938 177.472656 144.535156 171.847656 141.40625 166.351562 C 139.359375 162.757812 138.382812 158.808594 137.597656 154.796875 C 137.476562 154.1875 137.265625 153.59375 137.097656 152.996094 C 136.882812 153.035156 136.664062 153.070312 136.449219 153.109375 Z M 136.449219 153.109375 " fill-opacity="1" fill-rule="evenodd"/></g></g></g></g><g clip-path="url(#d7b3f09738)"><g clip-path="url(#7115164038)"><g clip-path="url(#a7c4cc01f8)"><g clip-path="url(#97af7fbf5b)"><path fill="#ee826c" d="M 161.71875 166.917969 C 161.898438 167.285156 162.046875 167.671875 162.261719 168.015625 C 168.367188 177.789062 177.015625 184.484375 187.585938 188.816406 C 188.890625 189.351562 190.324219 189.574219 191.707031 189.921875 C 192.992188 190.246094 195.117188 190.289062 194.761719 191.859375 C 194.414062 193.390625 192.347656 192.785156 191.140625 192.296875 C 186.921875 190.585938 182.71875 188.824219 178.609375 186.875 C 171.167969 183.34375 165.660156 177.691406 161.441406 170.695312 C 160.675781 169.425781 159.675781 168.292969 158.972656 166.992188 C 157.625 164.492188 156.316406 161.957031 155.164062 159.359375 C 153.140625 154.785156 151.285156 150.140625 149.289062 145.550781 C 146.273438 138.617188 145.765625 131.566406 147.84375 124.253906 C 149.605469 118.0625 151.023438 111.769531 152.804688 105.582031 C 153.605469 102.796875 154.824219 100.117188 156.046875 97.476562 C 156.535156 96.414062 157.546875 95.59375 158.320312 94.664062 C 158.578125 94.753906 158.835938 94.847656 159.09375 94.941406 C 159.046875 95.710938 159.269531 96.652344 158.910156 97.226562 C 155.273438 103.070312 154.113281 109.722656 152.464844 116.226562 C 151.777344 118.945312 150.894531 121.613281 150.167969 124.324219 C 148.625 130.054688 148.109375 135.832031 150.117188 141.542969 C 152.304688 147.773438 154.628906 154.007812 158.503906 159.40625 C 161.15625 163.097656 164.449219 166.320312 167.296875 169.878906 C 173.746094 177.941406 182.03125 183.109375 191.886719 185.953125 C 194.8125 186.796875 197.699219 186.941406 200.683594 186.339844 C 201.320312 186.210938 202.085938 186.707031 202.792969 186.914062 C 202.285156 187.46875 201.878906 188.265625 201.246094 188.539062 C 198.625 189.683594 195.863281 189.597656 193.144531 188.945312 C 185.183594 187.042969 178.054688 183.363281 171.945312 177.992188 C 168.882812 175.300781 166.429688 171.910156 163.710938 168.824219 C 163.113281 168.148438 162.5625 167.429688 161.988281 166.730469 C 161.898438 166.792969 161.808594 166.855469 161.71875 166.917969 Z M 161.71875 166.917969 " fill-opacity="1" fill-rule="evenodd"/></g></g></g></g><g clip-path="url(#705f853520)"><g clip-path="url(#59743c564a)"><g clip-path="url(#ba49557520)"><g clip-path="url(#2d9d1c4834)"><path fill="#ee826c" d="M 170.535156 101.644531 C 168.492188 105.726562 166.207031 109.703125 164.484375 113.914062 C 163.3125 116.78125 162.851562 119.945312 162.203125 123.003906 C 158.484375 140.640625 164.363281 153.261719 175.738281 161.90625 C 187.898438 171.148438 201.570312 174.21875 216.5625 170.113281 C 218.953125 169.460938 221.332031 168.75 223.75 168.230469 C 224.460938 168.078125 225.785156 168.261719 225.96875 168.675781 C 226.503906 169.875 225.273438 170.304688 224.445312 170.535156 C 215.792969 172.945312 207.210938 175.40625 197.992188 173.800781 C 185.964844 171.707031 175.640625 166.773438 167.570312 157.421875 C 159.996094 148.652344 157.996094 138.261719 158.988281 127.15625 C 160.332031 112.128906 167.171875 99.847656 178.550781 90.03125 C 179.003906 89.640625 179.507812 89.257812 180.054688 89.039062 C 185.203125 86.992188 190.523438 85.492188 196.074219 85.402344 C 200.816406 85.324219 204.847656 87.679688 208.777344 90.035156 C 209.210938 90.292969 209.335938 91.066406 209.601562 91.601562 C 209.039062 91.574219 208.433594 91.675781 207.925781 91.496094 C 204.777344 90.386719 201.65625 89.203125 198.511719 88.078125 C 198.003906 87.898438 197.425781 87.78125 196.890625 87.816406 C 188.378906 88.367188 180.238281 89.847656 174.476562 97.082031 C 173.238281 98.632812 172.027344 100.203125 170.804688 101.765625 C 170.714844 101.726562 170.625 101.683594 170.535156 101.644531 Z M 170.535156 101.644531 " fill-opacity="1" fill-rule="evenodd"/></g></g></g></g><g clip-path="url(#f8cb4651c0)"><g clip-path="url(#bd728a0d18)"><g clip-path="url(#47a8d3bbb1)"><g clip-path="url(#095737e9f1)"><path fill="#ee826c" d="M 167.308594 184.414062 C 169.980469 186.53125 172.65625 188.644531 175.328125 190.765625 C 178.023438 192.90625 181.042969 194.378906 184.535156 194.8125 C 183.828125 196.625 182.683594 197.203125 180.992188 196.472656 C 179.136719 195.671875 177.265625 194.753906 175.65625 193.550781 C 172.363281 191.078125 169.09375 188.53125 166.105469 185.707031 C 164.605469 184.292969 163.71875 182.21875 162.621094 180.402344 C 161.996094 179.375 161.648438 178.152344 160.925781 177.210938 C 154.246094 168.480469 149.351562 158.78125 145.40625 148.578125 C 141.800781 139.238281 140.808594 129.636719 143.574219 119.917969 C 144.695312 115.972656 146.476562 112.203125 148.113281 108.425781 C 148.4375 107.683594 149.828125 106.628906 150.132812 106.796875 C 151.421875 107.503906 150.789062 108.734375 150.253906 109.667969 C 147.613281 114.253906 145.835938 119.175781 144.964844 124.355469 C 143.636719 132.242188 144.632812 139.929688 147.53125 147.382812 C 150.25 154.371094 153.480469 161.09375 157.234375 167.59375 C 163.933594 179.195312 173.550781 187.179688 186.195312 191.554688 C 187.128906 191.875 188.070312 192.214844 188.945312 192.667969 C 189.300781 192.855469 189.757812 193.453125 189.679688 193.710938 C 189.5625 194.082031 189.019531 194.492188 188.613281 194.550781 C 188.050781 194.628906 187.425781 194.453125 186.855469 194.292969 C 180.828125 192.605469 175.480469 189.632812 170.636719 185.707031 C 170 185.191406 169.292969 184.753906 168.601562 184.304688 C 168.332031 184.128906 168.019531 184.019531 167.726562 183.882812 C 167.585938 184.058594 167.449219 184.238281 167.308594 184.414062 Z M 167.308594 184.414062 " fill-opacity="1" fill-rule="evenodd"/></g></g></g></g><g clip-path="url(#34a24cdfb4)"><g clip-path="url(#a5c02fd676)"><g clip-path="url(#3949160b88)"><g clip-path="url(#1930121d2f)"><path fill="#ee826c" d="M 171.390625 195.679688 C 168.824219 192.984375 165.921875 190.535156 163.765625 187.546875 C 158.109375 179.707031 152.574219 171.765625 147.378906 163.617188 C 142.074219 155.300781 139.667969 145.886719 138.644531 136.164062 C 138.347656 133.328125 138.890625 130.390625 139.21875 127.519531 C 139.285156 126.945312 140.140625 126.457031 140.628906 125.929688 C 140.890625 126.648438 141.457031 127.410156 141.367188 128.082031 C 139.785156 139.726562 143.152344 150.304688 148.367188 160.421875 C 150.277344 164.121094 152.65625 167.585938 154.957031 171.066406 C 158.164062 175.925781 161.378906 180.785156 164.8125 185.480469 C 167.894531 189.695312 171.867188 193.015625 176.332031 195.730469 C 176.566406 195.871094 176.867188 195.96875 177.015625 196.179688 C 177.246094 196.5 177.375 196.898438 177.546875 197.265625 C 177.160156 197.417969 176.691406 197.789062 176.40625 197.679688 C 175.082031 197.171875 173.808594 196.539062 172.527344 195.929688 C 172.234375 195.789062 171.980469 195.558594 171.707031 195.371094 C 171.601562 195.476562 171.496094 195.578125 171.390625 195.679688 Z M 171.390625 195.679688 " fill-opacity="1" fill-rule="evenodd"/></g></g></g></g><g clip-path="url(#01cf02f61e)"><g clip-path="url(#ed50b390dd)"><g clip-path="url(#4f812bbc21)"><g clip-path="url(#41cdebfbec)"><path fill="#ee826c" d="M 201.5625 165.253906 C 202.5625 164.917969 203.210938 164.554688 203.878906 164.5 C 206.945312 164.25 210.042969 164.277344 213.074219 163.824219 C 215.214844 163.507812 217.417969 162.875 219.328125 161.875 C 226.074219 158.34375 232.441406 154.210938 237.570312 148.460938 C 240.25 145.460938 242.226562 142.058594 242.929688 138.019531 C 243.757812 133.25 244.652344 128.496094 245.414062 123.71875 C 245.667969 122.101562 245.5625 120.425781 245.699219 118.785156 C 245.734375 118.367188 246.054688 117.976562 246.246094 117.570312 C 246.683594 117.832031 247.320312 117.992188 247.511719 118.375 C 247.824219 118.988281 248.015625 119.765625 247.953125 120.445312 C 247.691406 123.390625 247.355469 126.328125 246.96875 129.261719 C 246.769531 130.785156 246.25 132.28125 246.15625 133.804688 C 245.609375 142.757812 241.148438 149.621094 234.285156 154.84375 C 229.539062 158.457031 224.40625 161.664062 219.125 164.429688 C 214.238281 166.988281 208.734375 167.058594 203.292969 166.351562 C 203.027344 166.316406 202.757812 166.214844 202.519531 166.089844 C 202.335938 165.996094 202.195312 165.816406 201.5625 165.253906 Z M 201.5625 165.253906 " fill-opacity="1" fill-rule="evenodd"/></g></g></g></g><g clip-path="url(#f530a27c58)"><g clip-path="url(#123927166b)"><g clip-path="url(#bcd9a5ee79)"><g clip-path="url(#f9e718c7fd)"><path fill="#ee826c" d="M 187.742188 121.433594 C 185.894531 123.035156 185.664062 125.324219 185.3125 127.523438 C 185.109375 128.8125 185.199219 130.148438 185.113281 131.460938 C 185.054688 132.308594 184.878906 133.328125 183.808594 133.136719 C 183.320312 133.046875 182.667969 132.070312 182.648438 131.480469 C 182.515625 127.109375 183.230469 122.925781 186.007812 119.347656 C 186.539062 118.660156 187.167969 118.003906 187.871094 117.5 C 189.847656 116.089844 192.25 116.753906 192.914062 119.066406 C 193.40625 120.773438 193.566406 122.636719 193.523438 124.425781 C 193.453125 127.355469 192.871094 130.226562 191.292969 132.78125 C 190.21875 134.523438 188.992188 135.054688 187.636719 134.464844 C 186.304688 133.882812 185.742188 132.5625 186.195312 130.703125 C 186.691406 128.675781 187.339844 126.683594 187.835938 124.660156 C 188.089844 123.636719 188.148438 122.566406 188.292969 121.519531 C 188.109375 121.488281 187.925781 121.460938 187.742188 121.433594 Z M 190.546875 119.070312 C 190.339844 119.109375 190.132812 119.144531 189.925781 119.183594 C 189.921875 119.582031 189.835938 120.007812 189.929688 120.382812 C 190.667969 123.28125 190.308594 126.035156 188.929688 128.683594 C 188.679688 129.164062 188.433594 129.695312 188.375 130.222656 C 188.304688 130.867188 188.4375 131.53125 188.484375 132.1875 C 188.980469 131.773438 189.6875 131.457031 189.9375 130.925781 C 191.242188 128.148438 191.863281 125.207031 191.398438 122.132812 C 191.242188 121.09375 190.835938 120.089844 190.546875 119.070312 Z M 190.546875 119.070312 " fill-opacity="1" fill-rule="evenodd"/></g></g></g></g><g clip-path="url(#eeb9dc5474)"><g clip-path="url(#9d37e6cb53)"><g clip-path="url(#eab43fac6d)"><g clip-path="url(#fa2f78b60b)"><path fill="#ee826c" d="M 149.101562 194.628906 C 147.734375 192.808594 146.363281 191.28125 145.332031 189.550781 C 141.9375 183.839844 138.621094 178.078125 135.359375 172.285156 C 133.390625 168.789062 132.304688 165.003906 132.15625 160.960938 C 132.121094 160.03125 131.90625 159.109375 131.804688 158.179688 C 131.691406 157.144531 131.476562 156.089844 131.566406 155.066406 C 131.621094 154.417969 132.15625 153.8125 132.476562 153.1875 C 132.828125 153.757812 133.375 154.285156 133.492188 154.898438 C 133.917969 157.109375 134.308594 159.34375 134.507812 161.585938 C 134.828125 165.222656 135.914062 168.59375 137.765625 171.703125 C 141.496094 177.980469 145.269531 184.226562 149.058594 190.46875 C 149.539062 191.261719 150.296875 191.886719 150.753906 192.691406 C 151.027344 193.167969 150.964844 193.835938 151.054688 194.421875 C 150.414062 194.488281 149.773438 194.554688 149.101562 194.628906 Z M 149.101562 194.628906 " fill-opacity="1" fill-rule="evenodd"/></g></g></g></g><g clip-path="url(#b996fe932a)"><g clip-path="url(#0ed489dfec)"><g clip-path="url(#5a8675bf62)"><g clip-path="url(#9a0069ceb2)"><path fill="#ee826c" d="M 212.917969 125.101562 C 212.917969 124.480469 212.84375 123.851562 212.933594 123.246094 C 213.277344 120.957031 213.6875 118.683594 214.046875 116.398438 C 215.828125 105.144531 206.59375 95.210938 195.214844 96.132812 C 194.78125 96.167969 194.265625 96.320312 193.929688 96.144531 C 193.5 95.917969 193.042969 95.460938 192.929688 95.019531 C 192.867188 94.773438 193.425781 94.15625 193.800781 94.054688 C 194.691406 93.804688 195.640625 93.621094 196.558594 93.65625 C 203.949219 93.945312 209.738281 96.941406 213.597656 103.484375 C 217.410156 109.949219 217.210938 116.582031 214.816406 123.375 C 214.5625 124.09375 213.945312 124.683594 213.496094 125.335938 C 213.304688 125.257812 213.109375 125.179688 212.917969 125.101562 Z M 212.917969 125.101562 " fill-opacity="1" fill-rule="evenodd"/></g></g></g></g><g clip-path="url(#7154f75815)"><g clip-path="url(#af9ff9af93)"><g clip-path="url(#355164153a)"><g clip-path="url(#95361417c0)"><path fill="#ee826c" d="M 138.167969 186.449219 C 137.257812 184.941406 136.152344 183.496094 135.464844 181.875 C 134.679688 180.011719 134.203125 178.007812 133.722656 176.03125 C 133.59375 175.511719 133.949219 174.871094 134.085938 174.289062 C 134.617188 174.652344 135.363281 174.898438 135.644531 175.40625 C 137.378906 178.527344 139.039062 181.6875 140.640625 184.875 C 140.9375 185.472656 140.839844 186.265625 140.925781 186.96875 C 140.109375 186.8125 139.292969 186.660156 138.167969 186.449219 Z M 138.167969 186.449219 " fill-opacity="1" fill-rule="evenodd"/></g></g></g></g><g clip-path="url(#67fe164c8d)"><g clip-path="url(#40e0f5fad1)"><g clip-path="url(#cfd453fff8)"><g clip-path="url(#ed89a35952)"><path fill="#ee826c" d="M 185.992188 75.753906 C 186.535156 75.359375 186.984375 74.796875 187.519531 74.691406 C 189.976562 74.207031 192.449219 73.765625 194.941406 73.523438 C 195.464844 73.46875 196.074219 74.304688 196.648438 74.730469 C 196.128906 75.179688 195.664062 75.914062 195.078125 76.027344 C 192.382812 76.539062 189.65625 76.898438 186.933594 77.25 C 186.578125 77.296875 186.054688 77.078125 185.832031 76.800781 C 185.683594 76.613281 185.925781 76.113281 185.992188 75.753906 Z M 185.992188 75.753906 " fill-opacity="1" fill-rule="evenodd"/></g></g></g></g><g clip-path="url(#6166e55be1)"><g clip-path="url(#62100576e1)"><g clip-path="url(#826a073322)"><g clip-path="url(#62e107c755)"><path fill="#ee826c" d="M 232.785156 144.707031 C 233.945312 142.730469 235.101562 140.753906 236.257812 138.777344 C 236.503906 138.8125 236.746094 138.851562 236.988281 138.886719 C 237.035156 139.652344 237.257812 140.457031 237.089844 141.171875 C 236.609375 143.164062 235.003906 144.6875 232.785156 144.707031 Z M 232.785156 144.707031 " fill-opacity="1" fill-rule="evenodd"/></g></g></g></g><g clip-path="url(#bd1faa1385)"><g clip-path="url(#c8b91a8f97)"><g clip-path="url(#dfd6972b1d)"><g clip-path="url(#d6f11e3777)"><path fill="#ee826c" d="M 204.226562 114.378906 C 203.199219 112.792969 202.335938 111.5625 201.59375 110.265625 C 201.398438 109.921875 201.414062 109.058594 201.597656 108.96875 C 202.011719 108.757812 202.671875 108.714844 203.09375 108.910156 C 204.734375 109.65625 205.296875 111.867188 204.226562 114.378906 Z M 204.226562 114.378906 " fill-opacity="1" fill-rule="evenodd"/></g></g></g></g><g clip-path="url(#1c3924a7ae)"><g clip-path="url(#3c76934c7e)"><g clip-path="url(#b457648da9)"><g clip-path="url(#d1cc7f6fb3)"><path fill="#ee826c" d="M 209.386719 123.648438 C 209.273438 124.964844 209.160156 126.28125 209.050781 127.601562 C 208.832031 127.582031 208.613281 127.566406 208.394531 127.550781 C 208.484375 126.230469 208.574219 124.90625 208.664062 123.585938 C 208.90625 123.605469 209.144531 123.628906 209.386719 123.648438 Z M 209.386719 123.648438 " fill-opacity="1" fill-rule="evenodd"/></g></g></g></g><g clip-path="url(#5ec0c441e1)"><g clip-path="url(#53336caad1)"><g clip-path="url(#cda87b50d1)"><g clip-path="url(#ac6e5e7ee3)"><path fill="#ee826c" d="M 190.546875 119.070312 C 190.835938 120.089844 191.242188 121.09375 191.398438 122.132812 C 191.863281 125.207031 191.246094 128.148438 189.9375 130.925781 C 189.6875 131.457031 188.980469 131.773438 188.484375 132.1875 C 188.4375 131.53125 188.308594 130.867188 188.375 130.222656 C 188.433594 129.695312 188.679688 129.164062 188.929688 128.683594 C 190.308594 126.035156 190.667969 123.28125 189.929688 120.382812 C 189.835938 120.007812 189.921875 119.582031 189.925781 119.183594 C 190.132812 119.144531 190.339844 119.109375 190.546875 119.070312 Z M 190.546875 119.070312 " fill-opacity="1" fill-rule="evenodd"/></g></g></g></g><g fill="#18206f" fill-opacity="1"><g transform="translate(64.410931, 285.274433)"><g><path d="M 16.09375 0 C 15.6875 0 15.347656 -0.128906 15.078125 -0.390625 C 14.816406 -0.660156 14.6875 -1 14.6875 -1.40625 L 14.6875 -37.40625 L 2.9375 -37.40625 C 2.53125 -37.40625 2.191406 -37.535156 1.921875 -37.796875 C 1.660156 -38.066406 1.53125 -38.40625 1.53125 -38.8125 L 1.53125 -41.390625 C 1.53125 -41.835938 1.660156 -42.191406 1.921875 -42.453125 C 2.191406 -42.722656 2.53125 -42.859375 2.9375 -42.859375 L 32.453125 -42.859375 C 32.898438 -42.859375 33.253906 -42.722656 33.515625 -42.453125 C 33.785156 -42.191406 33.921875 -41.835938 33.921875 -41.390625 L 33.921875 -38.8125 C 33.921875 -38.40625 33.785156 -38.066406 33.515625 -37.796875 C 33.253906 -37.535156 32.898438 -37.40625 32.453125 -37.40625 L 20.75 -37.40625 L 20.75 -1.40625 C 20.75 -1 20.613281 -0.660156 20.34375 -0.390625 C 20.082031 -0.128906 19.726562 0 19.28125 0 Z M 16.09375 0 "/></g></g></g><g fill="#18206f" fill-opacity="1"><g transform="translate(99.849847, 285.274433)"><g><path d="M 17.5625 0.609375 C 14.46875 0.609375 11.878906 0.0195312 9.796875 -1.15625 C 7.710938 -2.34375 6.117188 -3.988281 5.015625 -6.09375 C 3.910156 -8.195312 3.300781 -10.59375 3.1875 -13.28125 C 3.144531 -13.976562 3.125 -14.863281 3.125 -15.9375 C 3.125 -17.019531 3.144531 -17.890625 3.1875 -18.546875 C 3.300781 -21.285156 3.921875 -23.691406 5.046875 -25.765625 C 6.171875 -27.847656 7.773438 -29.484375 9.859375 -30.671875 C 11.941406 -31.859375 14.507812 -32.453125 17.5625 -32.453125 C 20.625 -32.453125 23.195312 -31.859375 25.28125 -30.671875 C 27.363281 -29.484375 28.960938 -27.847656 30.078125 -25.765625 C 31.203125 -23.691406 31.828125 -21.285156 31.953125 -18.546875 C 31.992188 -17.890625 32.015625 -17.019531 32.015625 -15.9375 C 32.015625 -14.863281 31.992188 -13.976562 31.953125 -13.28125 C 31.828125 -10.59375 31.210938 -8.195312 30.109375 -6.09375 C 29.015625 -3.988281 27.425781 -2.34375 25.34375 -1.15625 C 23.257812 0.0195312 20.664062 0.609375 17.5625 0.609375 Z M 17.5625 -4.109375 C 20.09375 -4.109375 22.113281 -4.910156 23.625 -6.515625 C 25.132812 -8.128906 25.953125 -10.488281 26.078125 -13.59375 C 26.117188 -14.207031 26.140625 -14.984375 26.140625 -15.921875 C 26.140625 -16.859375 26.117188 -17.632812 26.078125 -18.25 C 25.953125 -21.34375 25.132812 -23.695312 23.625 -25.3125 C 22.113281 -26.925781 20.09375 -27.734375 17.5625 -27.734375 C 15.039062 -27.734375 13.015625 -26.925781 11.484375 -25.3125 C 9.953125 -23.695312 9.144531 -21.34375 9.0625 -18.25 C 9.019531 -17.632812 9 -16.859375 9 -15.921875 C 9 -14.984375 9.019531 -14.207031 9.0625 -13.59375 C 9.144531 -10.488281 9.953125 -8.128906 11.484375 -6.515625 C 13.015625 -4.910156 15.039062 -4.109375 17.5625 -4.109375 Z M 17.5625 -4.109375 "/></g></g></g><g fill="#18206f" fill-opacity="1"><g transform="translate(134.982726, 285.274433)"><g><path d="M 17.5625 13.46875 C 14.789062 13.46875 12.515625 13.097656 10.734375 12.359375 C 8.960938 11.628906 7.578125 10.742188 6.578125 9.703125 C 5.578125 8.660156 4.863281 7.617188 4.4375 6.578125 C 4.007812 5.535156 3.773438 4.710938 3.734375 4.109375 C 3.691406 3.691406 3.820312 3.335938 4.125 3.046875 C 4.4375 2.765625 4.773438 2.625 5.140625 2.625 L 8.078125 2.625 C 8.441406 2.625 8.742188 2.707031 8.984375 2.875 C 9.234375 3.039062 9.441406 3.390625 9.609375 3.921875 C 9.859375 4.535156 10.226562 5.21875 10.71875 5.96875 C 11.207031 6.71875 11.960938 7.367188 12.984375 7.921875 C 14.003906 8.472656 15.429688 8.75 17.265625 8.75 C 19.179688 8.75 20.789062 8.484375 22.09375 7.953125 C 23.40625 7.421875 24.394531 6.519531 25.0625 5.25 C 25.738281 3.988281 26.078125 2.238281 26.078125 0 L 26.078125 -4.15625 C 25.097656 -2.894531 23.8125 -1.84375 22.21875 -1 C 20.625 -0.164062 18.625 0.25 16.21875 0.25 C 13.9375 0.25 11.976562 -0.144531 10.34375 -0.9375 C 8.707031 -1.738281 7.367188 -2.820312 6.328125 -4.1875 C 5.296875 -5.5625 4.523438 -7.125 4.015625 -8.875 C 3.503906 -10.632812 3.207031 -12.472656 3.125 -14.390625 C 3.082031 -15.523438 3.082031 -16.644531 3.125 -17.75 C 3.207031 -19.664062 3.503906 -21.5 4.015625 -23.25 C 4.523438 -25.007812 5.296875 -26.582031 6.328125 -27.96875 C 7.367188 -29.363281 8.707031 -30.457031 10.34375 -31.25 C 11.976562 -32.050781 13.9375 -32.453125 16.21875 -32.453125 C 18.664062 -32.453125 20.695312 -32 22.3125 -31.09375 C 23.925781 -30.195312 25.242188 -29.078125 26.265625 -27.734375 L 26.265625 -30.359375 C 26.265625 -30.773438 26.394531 -31.125 26.65625 -31.40625 C 26.925781 -31.6875 27.265625 -31.828125 27.671875 -31.828125 L 30.484375 -31.828125 C 30.890625 -31.828125 31.234375 -31.6875 31.515625 -31.40625 C 31.804688 -31.125 31.953125 -30.773438 31.953125 -30.359375 L 31.953125 -0.671875 C 31.953125 2.054688 31.492188 4.484375 30.578125 6.609375 C 29.660156 8.734375 28.148438 10.40625 26.046875 11.625 C 23.941406 12.851562 21.113281 13.46875 17.5625 13.46875 Z M 17.453125 -4.65625 C 19.492188 -4.65625 21.132812 -5.125 22.375 -6.0625 C 23.625 -7 24.539062 -8.179688 25.125 -9.609375 C 25.71875 -11.035156 26.035156 -12.484375 26.078125 -13.953125 C 26.117188 -14.523438 26.140625 -15.226562 26.140625 -16.0625 C 26.140625 -16.90625 26.117188 -17.613281 26.078125 -18.1875 C 26.035156 -19.65625 25.71875 -21.101562 25.125 -22.53125 C 24.539062 -23.957031 23.625 -25.140625 22.375 -26.078125 C 21.132812 -27.015625 19.492188 -27.484375 17.453125 -27.484375 C 15.410156 -27.484375 13.773438 -27.023438 12.546875 -26.109375 C 11.328125 -25.191406 10.453125 -23.988281 9.921875 -22.5 C 9.390625 -21.007812 9.082031 -19.40625 9 -17.6875 C 8.957031 -16.625 8.957031 -15.546875 9 -14.453125 C 9.082031 -12.734375 9.390625 -11.128906 9.921875 -9.640625 C 10.453125 -8.148438 11.328125 -6.945312 12.546875 -6.03125 C 13.773438 -5.113281 15.410156 -4.65625 17.453125 -4.65625 Z M 17.453125 -4.65625 "/></g></g></g><g fill="#18206f" fill-opacity="1"><g transform="translate(171.523377, 285.274433)"><g><path d="M 12.984375 0 C 12.453125 0 12.039062 -0.128906 11.75 -0.390625 C 11.46875 -0.660156 11.222656 -1.039062 11.015625 -1.53125 L 2.328125 -29.9375 C 2.242188 -30.132812 2.203125 -30.335938 2.203125 -30.546875 C 2.203125 -30.910156 2.332031 -31.210938 2.59375 -31.453125 C 2.863281 -31.703125 3.160156 -31.828125 3.484375 -31.828125 L 6.1875 -31.828125 C 6.632812 -31.828125 6.976562 -31.703125 7.21875 -31.453125 C 7.46875 -31.210938 7.632812 -30.992188 7.71875 -30.796875 L 14.515625 -7.71875 L 21.796875 -30.546875 C 21.878906 -30.835938 22.050781 -31.125 22.3125 -31.40625 C 22.582031 -31.6875 22.984375 -31.828125 23.515625 -31.828125 L 25.59375 -31.828125 C 26.125 -31.828125 26.53125 -31.6875 26.8125 -31.40625 C 27.101562 -31.125 27.265625 -30.835938 27.296875 -30.546875 L 34.59375 -7.71875 L 41.390625 -30.796875 C 41.421875 -30.992188 41.5625 -31.210938 41.8125 -31.453125 C 42.0625 -31.703125 42.410156 -31.828125 42.859375 -31.828125 L 45.609375 -31.828125 C 45.929688 -31.828125 46.210938 -31.703125 46.453125 -31.453125 C 46.703125 -31.210938 46.828125 -30.910156 46.828125 -30.546875 C 46.828125 -30.335938 46.785156 -30.132812 46.703125 -29.9375 L 38.078125 -1.53125 C 37.910156 -1.039062 37.679688 -0.660156 37.390625 -0.390625 C 37.109375 -0.128906 36.664062 0 36.0625 0 L 33.671875 0 C 33.140625 0 32.695312 -0.128906 32.34375 -0.390625 C 32 -0.660156 31.769531 -1.039062 31.65625 -1.53125 L 24.546875 -23.453125 L 17.453125 -1.53125 C 17.285156 -1.039062 17.035156 -0.660156 16.703125 -0.390625 C 16.378906 -0.128906 15.929688 0 15.359375 0 Z M 12.984375 0 "/></g></g></g><g fill="#18206f" fill-opacity="1"><g transform="translate(220.611479, 285.274433)"><g><path d="M 17.5625 0.609375 C 14.46875 0.609375 11.878906 0.0195312 9.796875 -1.15625 C 7.710938 -2.34375 6.117188 -3.988281 5.015625 -6.09375 C 3.910156 -8.195312 3.300781 -10.59375 3.1875 -13.28125 C 3.144531 -13.976562 3.125 -14.863281 3.125 -15.9375 C 3.125 -17.019531 3.144531 -17.890625 3.1875 -18.546875 C 3.300781 -21.285156 3.921875 -23.691406 5.046875 -25.765625 C 6.171875 -27.847656 7.773438 -29.484375 9.859375 -30.671875 C 11.941406 -31.859375 14.507812 -32.453125 17.5625 -32.453125 C 20.625 -32.453125 23.195312 -31.859375 25.28125 -30.671875 C 27.363281 -29.484375 28.960938 -27.847656 30.078125 -25.765625 C 31.203125 -23.691406 31.828125 -21.285156 31.953125 -18.546875 C 31.992188 -17.890625 32.015625 -17.019531 32.015625 -15.9375 C 32.015625 -14.863281 31.992188 -13.976562 31.953125 -13.28125 C 31.828125 -10.59375 31.210938 -8.195312 30.109375 -6.09375 C 29.015625 -3.988281 27.425781 -2.34375 25.34375 -1.15625 C 23.257812 0.0195312 20.664062 0.609375 17.5625 0.609375 Z M 17.5625 -4.109375 C 20.09375 -4.109375 22.113281 -4.910156 23.625 -6.515625 C 25.132812 -8.128906 25.953125 -10.488281 26.078125 -13.59375 C 26.117188 -14.207031 26.140625 -14.984375 26.140625 -15.921875 C 26.140625 -16.859375 26.117188 -17.632812 26.078125 -18.25 C 25.953125 -21.34375 25.132812 -23.695312 23.625 -25.3125 C 22.113281 -26.925781 20.09375 -27.734375 17.5625 -27.734375 C 15.039062 -27.734375 13.015625 -26.925781 11.484375 -25.3125 C 9.953125 -23.695312 9.144531 -21.34375 9.0625 -18.25 C 9.019531 -17.632812 9 -16.859375 9 -15.921875 C 9 -14.984375 9.019531 -14.207031 9.0625 -13.59375 C 9.144531 -10.488281 9.953125 -8.128906 11.484375 -6.515625 C 13.015625 -4.910156 15.039062 -4.109375 17.5625 -4.109375 Z M 17.5625 -4.109375 "/></g></g></g><g fill="#18206f" fill-opacity="1"><g transform="translate(255.744358, 285.274433)"><g><path d="M 5.9375 0 C 5.53125 0 5.191406 -0.128906 4.921875 -0.390625 C 4.660156 -0.660156 4.53125 -1 4.53125 -1.40625 L 4.53125 -30.359375 C 4.53125 -30.773438 4.660156 -31.125 4.921875 -31.40625 C 5.191406 -31.6875 5.53125 -31.828125 5.9375 -31.828125 L 8.75 -31.828125 C 9.15625 -31.828125 9.5 -31.6875 9.78125 -31.40625 C 10.070312 -31.125 10.21875 -30.773438 10.21875 -30.359375 L 10.21875 -27.671875 C 11.039062 -29.054688 12.164062 -30.09375 13.59375 -30.78125 C 15.019531 -31.476562 16.753906 -31.828125 18.796875 -31.828125 L 21.1875 -31.828125 C 21.59375 -31.828125 21.925781 -31.691406 22.1875 -31.421875 C 22.457031 -31.160156 22.59375 -30.828125 22.59375 -30.421875 L 22.59375 -27.921875 C 22.59375 -27.503906 22.457031 -27.171875 22.1875 -26.921875 C 21.925781 -26.679688 21.59375 -26.5625 21.1875 -26.5625 L 17.515625 -26.5625 C 15.304688 -26.5625 13.566406 -25.921875 12.296875 -24.640625 C 11.035156 -23.359375 10.40625 -21.613281 10.40625 -19.40625 L 10.40625 -1.40625 C 10.40625 -1 10.257812 -0.660156 9.96875 -0.390625 C 9.6875 -0.128906 9.34375 0 8.9375 0 Z M 5.9375 0 "/></g></g></g><g fill="#18206f" fill-opacity="1"><g transform="translate(279.003065, 285.274433)"><g><path d="M 6 0 C 5.59375 0 5.253906 -0.128906 4.984375 -0.390625 C 4.722656 -0.660156 4.59375 -1 4.59375 -1.40625 L 4.59375 -42.0625 C 4.59375 -42.46875 4.722656 -42.800781 4.984375 -43.0625 C 5.253906 -43.332031 5.59375 -43.46875 6 -43.46875 L 8.875 -43.46875 C 9.28125 -43.46875 9.613281 -43.332031 9.875 -43.0625 C 10.144531 -42.800781 10.28125 -42.46875 10.28125 -42.0625 L 10.28125 -20.75 L 22.34375 -30.796875 C 22.832031 -31.203125 23.207031 -31.472656 23.46875 -31.609375 C 23.738281 -31.753906 24.179688 -31.828125 24.796875 -31.828125 L 28.03125 -31.828125 C 28.40625 -31.828125 28.710938 -31.703125 28.953125 -31.453125 C 29.203125 -31.210938 29.328125 -30.910156 29.328125 -30.546875 C 29.328125 -30.378906 29.273438 -30.191406 29.171875 -29.984375 C 29.066406 -29.785156 28.875 -29.585938 28.59375 -29.390625 L 14.453125 -17.625 L 30.125 -2.390625 C 30.613281 -1.984375 30.859375 -1.613281 30.859375 -1.28125 C 30.859375 -0.914062 30.734375 -0.609375 30.484375 -0.359375 C 30.242188 -0.117188 29.9375 0 29.5625 0 L 26.390625 0 C 25.773438 0 25.320312 -0.0664062 25.03125 -0.203125 C 24.75 -0.347656 24.382812 -0.628906 23.9375 -1.046875 L 10.28125 -14.078125 L 10.28125 -1.40625 C 10.28125 -1 10.144531 -0.660156 9.875 -0.390625 C 9.613281 -0.128906 9.28125 0 8.875 0 Z M 6 0 "/></g></g></g></svg>