<svg xmlns="http://www.w3.org/2000/svg" xmlns:xlink="http://www.w3.org/1999/xlink" width="500" zoomAndPan="magnify" viewBox="0 0 375 374.999991" height="500" preserveAspectRatio="xMidYMid meet" version="1.0"><defs><g/><clipPath id="92bb7d3c53"><path d="M 112.5 62.789062 L 262.5 62.789062 L 262.5 212.789062 L 112.5 212.789062 Z M 112.5 62.789062 " clip-rule="nonzero"/></clipPath><clipPath id="4784462484"><path d="M 138.375 181 L 236.625 181 L 236.625 204.941406 L 138.375 204.941406 Z M 138.375 181 " clip-rule="nonzero"/></clipPath></defs><g clip-path="url(#92bb7d3c53)"><path fill="#18206f" d="M 187.5 212.789062 C 146.066406 212.789062 112.5 178.996094 112.5 137.789062 C 112.5 96.585938 146.066406 62.789062 187.5 62.789062 C 228.933594 62.789062 262.5 96.355469 262.5 137.789062 C 262.5 179.226562 228.703125 212.789062 187.5 212.789062 Z M 187.5 67.421875 C 148.609375 67.421875 117.128906 98.902344 117.128906 137.789062 C 117.128906 176.679688 148.609375 208.160156 187.5 208.160156 C 226.390625 208.160156 257.871094 176.679688 257.871094 137.789062 C 257.871094 98.902344 226.15625 67.421875 187.5 67.421875 Z M 187.5 67.421875 " fill-opacity="1" fill-rule="nonzero"/></g><g clip-path="url(#4784462484)"><path fill="#ee826c" d="M 236.625 181.875 C 203.867188 185.175781 171.101562 188.476562 138.34375 191.777344 C 144.265625 198.78125 160.886719 204.722656 166.566406 204.722656 C 182.015625 204.722656 197.460938 204.722656 212.914062 204.722656 C 222.96875 204.722656 232.230469 191.402344 236.625 181.875 Z M 236.625 181.875 " fill-opacity="1" fill-rule="evenodd"/></g><path fill="#ee826c" d="M 181.863281 61.953125 C 199.511719 113.742188 186.238281 158.28125 149.796875 189.320312 C 183.21875 174.738281 212.082031 168.925781 224.367188 181.746094 C 232.90625 130.3125 205.164062 90.125 181.863281 61.953125 Z M 180.003906 55.214844 C 183.527344 104.851562 174.839844 156.394531 149.15625 189.320312 C 166.242188 152.425781 176.085938 93.441406 180.003906 55.214844 Z M 180.003906 55.214844 " fill-opacity="1" fill-rule="evenodd"/><g fill="#18206f" fill-opacity="1"><g transform="translate(53.196087, 285.374453)"><g><path d="M 5.96875 0 L 5.96875 -42.75 L 23.359375 -42.75 C 25.085938 -42.75 26.691406 -42.378906 28.171875 -41.640625 C 29.660156 -40.898438 30.9375 -39.914062 32 -38.6875 C 33.070312 -37.46875 33.90625 -36.082031 34.5 -34.53125 C 35.101562 -32.988281 35.40625 -31.414062 35.40625 -29.8125 C 35.40625 -28.164062 35.144531 -26.578125 34.625 -25.046875 C 34.101562 -23.523438 33.359375 -22.171875 32.390625 -20.984375 C 31.429688 -19.796875 30.28125 -18.832031 28.9375 -18.09375 C 27.59375 -17.351562 26.117188 -16.921875 24.515625 -16.796875 L 35.34375 0 L 33.90625 0 L 23.0625 -16.796875 L 7.171875 -16.796875 L 7.171875 0 Z M 7.171875 -18 L 23.78125 -18 C 25.382812 -18 26.828125 -18.335938 28.109375 -19.015625 C 29.398438 -19.703125 30.5 -20.597656 31.40625 -21.703125 C 32.3125 -22.804688 33.003906 -24.0625 33.484375 -25.46875 C 33.960938 -26.875 34.203125 -28.320312 34.203125 -29.8125 C 34.203125 -31.332031 33.921875 -32.796875 33.359375 -34.203125 C 32.796875 -35.609375 32.019531 -36.851562 31.03125 -37.9375 C 30.050781 -39.019531 28.898438 -39.890625 27.578125 -40.546875 C 26.253906 -41.210938 24.847656 -41.546875 23.359375 -41.546875 L 7.171875 -41.546875 Z M 7.171875 -18 "/></g></g></g><g fill="#18206f" fill-opacity="1"><g transform="translate(91.851514, 285.374453)"><g><path d="M 14.75 0.609375 C 8.050781 0.609375 4.703125 -4.171875 4.703125 -13.734375 L 4.703125 -31.25 L 5.90625 -31.25 L 5.90625 -13.734375 C 5.90625 -4.984375 8.851562 -0.609375 14.75 -0.609375 C 16.238281 -0.609375 17.703125 -0.878906 19.140625 -1.421875 C 20.585938 -1.960938 21.914062 -2.703125 23.125 -3.640625 C 24.332031 -4.585938 25.382812 -5.722656 26.28125 -7.046875 C 27.1875 -8.367188 27.878906 -9.8125 28.359375 -11.375 L 28.359375 -31.25 L 29.5625 -31.25 L 29.5625 -2.40625 C 29.5625 -1.601562 29.882812 -1.203125 30.53125 -1.203125 L 30.53125 0 C 30.09375 0 29.8125 -0.0390625 29.6875 -0.125 C 29.28125 -0.28125 28.957031 -0.566406 28.71875 -0.984375 C 28.476562 -1.410156 28.359375 -1.882812 28.359375 -2.40625 L 28.359375 -7.953125 C 26.992188 -5.296875 25.085938 -3.203125 22.640625 -1.671875 C 20.191406 -0.148438 17.5625 0.609375 14.75 0.609375 Z M 14.75 0.609375 "/></g></g></g><g fill="#18206f" fill-opacity="1"><g transform="translate(126.533015, 285.374453)"><g><path d="M 17.828125 0.609375 C 15.660156 0.609375 13.648438 0.144531 11.796875 -0.78125 C 9.953125 -1.707031 8.359375 -2.929688 7.015625 -4.453125 C 5.671875 -5.984375 4.625 -7.710938 3.875 -9.640625 C 3.132812 -11.566406 2.765625 -13.53125 2.765625 -15.53125 C 2.765625 -17.695312 3.125 -19.753906 3.84375 -21.703125 C 4.570312 -23.648438 5.585938 -25.363281 6.890625 -26.84375 C 8.203125 -28.332031 9.738281 -29.519531 11.5 -30.40625 C 13.269531 -31.289062 15.195312 -31.734375 17.28125 -31.734375 C 18.726562 -31.734375 20.082031 -31.519531 21.34375 -31.09375 C 22.613281 -30.675781 23.789062 -30.113281 24.875 -29.40625 C 25.957031 -28.707031 26.925781 -27.882812 27.78125 -26.9375 C 28.644531 -26 29.398438 -25.007812 30.046875 -23.96875 L 30.046875 -43.953125 L 31.25 -43.953125 L 31.25 -2.40625 C 31.25 -1.601562 31.570312 -1.203125 32.21875 -1.203125 L 32.21875 0 C 31.851562 0 31.59375 -0.0390625 31.4375 -0.125 C 30.988281 -0.320312 30.644531 -0.628906 30.40625 -1.046875 C 30.164062 -1.472656 30.046875 -1.925781 30.046875 -2.40625 L 30.046875 -6.5 C 29.367188 -5.457031 28.578125 -4.503906 27.671875 -3.640625 C 26.765625 -2.773438 25.78125 -2.019531 24.71875 -1.375 C 23.65625 -0.738281 22.539062 -0.25 21.375 0.09375 C 20.207031 0.4375 19.023438 0.609375 17.828125 0.609375 Z M 17.828125 -0.609375 C 19.023438 -0.609375 20.328125 -0.867188 21.734375 -1.390625 C 23.140625 -1.910156 24.441406 -2.597656 25.640625 -3.453125 C 26.847656 -4.316406 27.863281 -5.332031 28.6875 -6.5 C 29.507812 -7.664062 29.960938 -8.890625 30.046875 -10.171875 L 30.046875 -21.4375 C 29.609375 -22.675781 28.925781 -23.847656 28 -24.953125 C 27.070312 -26.054688 26.023438 -27.019531 24.859375 -27.84375 C 23.703125 -28.664062 22.460938 -29.316406 21.140625 -29.796875 C 19.816406 -30.285156 18.53125 -30.53125 17.28125 -30.53125 C 15.238281 -30.53125 13.398438 -30.097656 11.765625 -29.234375 C 10.140625 -28.367188 8.742188 -27.234375 7.578125 -25.828125 C 6.421875 -24.421875 5.53125 -22.816406 4.90625 -21.015625 C 4.28125 -19.210938 3.96875 -17.382812 3.96875 -15.53125 C 3.96875 -13.5625 4.328125 -11.679688 5.046875 -9.890625 C 5.773438 -8.109375 6.757812 -6.523438 8 -5.140625 C 9.25 -3.765625 10.71875 -2.664062 12.40625 -1.84375 C 14.09375 -1.019531 15.898438 -0.609375 17.828125 -0.609375 Z M 17.828125 -0.609375 "/></g></g></g><g fill="#18206f" fill-opacity="1"><g transform="translate(162.900425, 285.374453)"><g><path d="M 17.828125 0.609375 C 15.660156 0.609375 13.648438 0.144531 11.796875 -0.78125 C 9.953125 -1.707031 8.359375 -2.929688 7.015625 -4.453125 C 5.671875 -5.984375 4.625 -7.710938 3.875 -9.640625 C 3.132812 -11.566406 2.765625 -13.53125 2.765625 -15.53125 C 2.765625 -17.695312 3.125 -19.753906 3.84375 -21.703125 C 4.570312 -23.648438 5.585938 -25.363281 6.890625 -26.84375 C 8.203125 -28.332031 9.738281 -29.519531 11.5 -30.40625 C 13.269531 -31.289062 15.195312 -31.734375 17.28125 -31.734375 C 18.726562 -31.734375 20.082031 -31.519531 21.34375 -31.09375 C 22.613281 -30.675781 23.789062 -30.113281 24.875 -29.40625 C 25.957031 -28.707031 26.925781 -27.882812 27.78125 -26.9375 C 28.644531 -26 29.398438 -25.007812 30.046875 -23.96875 L 30.046875 -43.953125 L 31.25 -43.953125 L 31.25 -2.40625 C 31.25 -1.601562 31.570312 -1.203125 32.21875 -1.203125 L 32.21875 0 C 31.851562 0 31.59375 -0.0390625 31.4375 -0.125 C 30.988281 -0.320312 30.644531 -0.628906 30.40625 -1.046875 C 30.164062 -1.472656 30.046875 -1.925781 30.046875 -2.40625 L 30.046875 -6.5 C 29.367188 -5.457031 28.578125 -4.503906 27.671875 -3.640625 C 26.765625 -2.773438 25.78125 -2.019531 24.71875 -1.375 C 23.65625 -0.738281 22.539062 -0.25 21.375 0.09375 C 20.207031 0.4375 19.023438 0.609375 17.828125 0.609375 Z M 17.828125 -0.609375 C 19.023438 -0.609375 20.328125 -0.867188 21.734375 -1.390625 C 23.140625 -1.910156 24.441406 -2.597656 25.640625 -3.453125 C 26.847656 -4.316406 27.863281 -5.332031 28.6875 -6.5 C 29.507812 -7.664062 29.960938 -8.890625 30.046875 -10.171875 L 30.046875 -21.4375 C 29.609375 -22.675781 28.925781 -23.847656 28 -24.953125 C 27.070312 -26.054688 26.023438 -27.019531 24.859375 -27.84375 C 23.703125 -28.664062 22.460938 -29.316406 21.140625 -29.796875 C 19.816406 -30.285156 18.53125 -30.53125 17.28125 -30.53125 C 15.238281 -30.53125 13.398438 -30.097656 11.765625 -29.234375 C 10.140625 -28.367188 8.742188 -27.234375 7.578125 -25.828125 C 6.421875 -24.421875 5.53125 -22.816406 4.90625 -21.015625 C 4.28125 -19.210938 3.96875 -17.382812 3.96875 -15.53125 C 3.96875 -13.5625 4.328125 -11.679688 5.046875 -9.890625 C 5.773438 -8.109375 6.757812 -6.523438 8 -5.140625 C 9.25 -3.765625 10.71875 -2.664062 12.40625 -1.84375 C 14.09375 -1.019531 15.898438 -0.609375 17.828125 -0.609375 Z M 17.828125 -0.609375 "/></g></g></g><g fill="#18206f" fill-opacity="1"><g transform="translate(199.267835, 285.374453)"><g><path d="M 49.984375 0 L 48.78125 0 L 48.78125 -17.40625 C 48.78125 -21.894531 48.109375 -25.203125 46.765625 -27.328125 C 45.421875 -29.460938 43.300781 -30.53125 40.40625 -30.53125 C 38.914062 -30.53125 37.519531 -30.257812 36.21875 -29.71875 C 34.914062 -29.175781 33.734375 -28.421875 32.671875 -27.453125 C 31.609375 -26.492188 30.679688 -25.351562 29.890625 -24.03125 C 29.109375 -22.707031 28.519531 -21.257812 28.125 -19.6875 L 28.125 0 L 26.921875 0 L 26.921875 -17.40625 C 26.921875 -21.9375 26.253906 -25.253906 24.921875 -27.359375 C 23.597656 -29.472656 21.492188 -30.53125 18.609375 -30.53125 C 17.160156 -30.53125 15.785156 -30.269531 14.484375 -29.75 C 13.179688 -29.226562 11.992188 -28.492188 10.921875 -27.546875 C 9.859375 -26.609375 8.925781 -25.472656 8.125 -24.140625 C 7.320312 -22.816406 6.703125 -21.351562 6.265625 -19.75 L 6.265625 0 L 5.0625 0 L 5.0625 -31.25 L 6.265625 -31.25 L 6.265625 -23.1875 C 7.628906 -25.914062 9.363281 -28.019531 11.46875 -29.5 C 13.582031 -30.988281 15.878906 -31.734375 18.359375 -31.734375 C 21.015625 -31.734375 23.1875 -30.910156 24.875 -29.265625 C 26.5625 -27.617188 27.5625 -25.410156 27.875 -22.640625 C 31.007812 -28.703125 35.1875 -31.734375 40.40625 -31.734375 C 43.65625 -31.734375 46.0625 -30.554688 47.625 -28.203125 C 49.195312 -25.859375 49.984375 -22.257812 49.984375 -17.40625 Z M 49.984375 0 "/></g></g></g><g fill="#18206f" fill-opacity="1"><g transform="translate(253.939359, 285.374453)"><g><path d="M 12.46875 0.609375 C 11.0625 0.609375 9.734375 0.359375 8.484375 -0.140625 C 7.242188 -0.648438 6.171875 -1.335938 5.265625 -2.203125 C 4.367188 -3.066406 3.65625 -4.078125 3.125 -5.234375 C 2.601562 -6.398438 2.34375 -7.644531 2.34375 -8.96875 C 2.34375 -10.289062 2.65625 -11.492188 3.28125 -12.578125 C 3.90625 -13.671875 4.785156 -14.609375 5.921875 -15.390625 C 7.066406 -16.171875 8.429688 -16.78125 10.015625 -17.21875 C 11.609375 -17.664062 13.347656 -17.890625 15.234375 -17.890625 C 17.035156 -17.890625 18.859375 -17.738281 20.703125 -17.4375 C 22.554688 -17.132812 24.226562 -16.703125 25.71875 -16.140625 L 25.71875 -19.6875 C 25.71875 -21.289062 25.472656 -22.765625 24.984375 -24.109375 C 24.503906 -25.460938 23.8125 -26.609375 22.90625 -27.546875 C 22.007812 -28.492188 20.925781 -29.226562 19.65625 -29.75 C 18.394531 -30.269531 17 -30.53125 15.46875 -30.53125 C 13.945312 -30.53125 12.320312 -30.195312 10.59375 -29.53125 C 8.875 -28.875 7.128906 -27.921875 5.359375 -26.671875 L 4.640625 -27.640625 C 8.648438 -30.367188 12.257812 -31.734375 15.46875 -31.734375 C 17.195312 -31.734375 18.773438 -31.453125 20.203125 -30.890625 C 21.628906 -30.328125 22.832031 -29.523438 23.8125 -28.484375 C 24.800781 -27.441406 25.566406 -26.175781 26.109375 -24.6875 C 26.648438 -23.207031 26.921875 -21.539062 26.921875 -19.6875 L 26.921875 -2.40625 C 26.921875 -1.601562 27.238281 -1.203125 27.875 -1.203125 L 27.875 0 C 27.4375 0 27.15625 -0.0390625 27.03125 -0.125 C 26.632812 -0.28125 26.316406 -0.566406 26.078125 -0.984375 C 25.835938 -1.410156 25.71875 -1.882812 25.71875 -2.40625 L 25.71875 -5.296875 C 24.269531 -3.410156 22.378906 -1.953125 20.046875 -0.921875 C 17.722656 0.0976562 15.195312 0.609375 12.46875 0.609375 Z M 12.46875 -0.609375 C 15.15625 -0.609375 17.613281 -1.109375 19.84375 -2.109375 C 22.070312 -3.109375 23.726562 -4.453125 24.8125 -6.140625 C 25.414062 -6.984375 25.71875 -7.804688 25.71875 -8.609375 L 25.71875 -14.8125 C 22.5 -16.0625 19.003906 -16.6875 15.234375 -16.6875 C 13.460938 -16.6875 11.863281 -16.503906 10.4375 -16.140625 C 9.019531 -15.773438 7.796875 -15.25 6.765625 -14.5625 C 5.742188 -13.882812 4.953125 -13.070312 4.390625 -12.125 C 3.828125 -11.1875 3.546875 -10.132812 3.546875 -8.96875 C 3.546875 -7.800781 3.773438 -6.707031 4.234375 -5.6875 C 4.703125 -4.664062 5.335938 -3.769531 6.140625 -3 C 6.941406 -2.238281 7.882812 -1.648438 8.96875 -1.234375 C 10.050781 -0.816406 11.21875 -0.609375 12.46875 -0.609375 Z M 12.46875 -0.609375 "/></g></g></g><g fill="#18206f" fill-opacity="1"><g transform="translate(285.489894, 285.374453)"><g><path d="M 19.03125 0.609375 C 17.625 0.609375 16.296875 0.398438 15.046875 -0.015625 C 13.804688 -0.441406 12.644531 -1.003906 11.5625 -1.703125 C 10.476562 -2.410156 9.492188 -3.234375 8.609375 -4.171875 C 7.722656 -5.117188 6.941406 -6.117188 6.265625 -7.171875 L 6.265625 12.828125 L 5.0625 12.828125 L 5.0625 -31.25 L 6.265625 -31.25 L 6.265625 -24.625 C 6.898438 -25.664062 7.679688 -26.617188 8.609375 -27.484375 C 9.535156 -28.347656 10.53125 -29.101562 11.59375 -29.75 C 12.65625 -30.394531 13.769531 -30.882812 14.9375 -31.21875 C 16.101562 -31.5625 17.285156 -31.734375 18.484375 -31.734375 C 20.691406 -31.734375 22.71875 -31.257812 24.5625 -30.3125 C 26.414062 -29.375 28.003906 -28.140625 29.328125 -26.609375 C 30.648438 -25.085938 31.679688 -23.363281 32.421875 -21.4375 C 33.171875 -19.507812 33.546875 -17.539062 33.546875 -15.53125 C 33.546875 -13.40625 33.191406 -11.367188 32.484375 -9.421875 C 31.785156 -7.472656 30.800781 -5.753906 29.53125 -4.265625 C 28.269531 -2.785156 26.742188 -1.601562 24.953125 -0.71875 C 23.171875 0.164062 21.195312 0.609375 19.03125 0.609375 Z M 19.03125 -0.609375 C 21.070312 -0.609375 22.90625 -1.035156 24.53125 -1.890625 C 26.164062 -2.753906 27.5625 -3.890625 28.71875 -5.296875 C 29.882812 -6.703125 30.78125 -8.296875 31.40625 -10.078125 C 32.03125 -11.867188 32.34375 -13.6875 32.34375 -15.53125 C 32.34375 -17.5 31.976562 -19.382812 31.25 -21.1875 C 30.53125 -23 29.546875 -24.597656 28.296875 -25.984375 C 27.054688 -27.367188 25.59375 -28.472656 23.90625 -29.296875 C 22.21875 -30.117188 20.410156 -30.53125 18.484375 -30.53125 C 17.285156 -30.53125 15.984375 -30.269531 14.578125 -29.75 C 13.171875 -29.226562 11.863281 -28.523438 10.65625 -27.640625 C 9.457031 -26.753906 8.445312 -25.726562 7.625 -24.5625 C 6.800781 -23.40625 6.347656 -22.203125 6.265625 -20.953125 L 6.265625 -9.6875 C 6.828125 -8.40625 7.546875 -7.210938 8.421875 -6.109375 C 9.304688 -5.003906 10.300781 -4.050781 11.40625 -3.25 C 12.507812 -2.445312 13.703125 -1.804688 14.984375 -1.328125 C 16.273438 -0.847656 17.625 -0.609375 19.03125 -0.609375 Z M 19.03125 -0.609375 "/></g></g></g></svg>